<mxfile host="app.diagrams.net" modified="2023-05-05T22:18:22.795Z" agent="Mozilla/5.0 (Windows NT 10.0; Win64; x64) AppleWebKit/537.36 (KHTML, like Gecko) Chrome/112.0.0.0 Safari/537.36" etag="sB5ZosgmC-xEiBbgcAZf" version="21.2.9" type="github">
  <diagram name="Page-1" id="2TabFwX5UwhaiMWRNx6H">
    <mxGraphModel dx="3574" dy="1537" grid="1" gridSize="10" guides="1" tooltips="1" connect="1" arrows="1" fold="1" page="1" pageScale="1" pageWidth="850" pageHeight="1100" math="0" shadow="0">
      <root>
        <mxCell id="0" />
        <mxCell id="1" parent="0" />
        <mxCell id="6BHXMDmVlEBjsqxJzx_9-1" style="edgeStyle=entityRelationEdgeStyle;rounded=0;orthogonalLoop=1;jettySize=auto;html=1;exitX=0.5;exitY=0;exitDx=0;exitDy=0;entryX=1;entryY=0.5;entryDx=0;entryDy=0;endArrow=none;endFill=0;" edge="1" parent="1" source="6BHXMDmVlEBjsqxJzx_9-2" target="6BHXMDmVlEBjsqxJzx_9-249">
          <mxGeometry relative="1" as="geometry">
            <Array as="points">
              <mxPoint x="-220" y="360" />
              <mxPoint x="-220" y="-60" />
              <mxPoint x="-883" y="-60" />
            </Array>
          </mxGeometry>
        </mxCell>
        <mxCell id="6BHXMDmVlEBjsqxJzx_9-2" value="Client " style="swimlane;fontStyle=0;align=center;verticalAlign=top;childLayout=stackLayout;horizontal=1;startSize=26;horizontalStack=0;resizeParent=1;resizeLast=0;collapsible=1;marginBottom=0;rounded=0;shadow=0;strokeWidth=1;" vertex="1" parent="1">
          <mxGeometry x="-60" y="360" width="280" height="450" as="geometry">
            <mxRectangle x="130" y="380" width="160" height="26" as="alternateBounds" />
          </mxGeometry>
        </mxCell>
        <mxCell id="6BHXMDmVlEBjsqxJzx_9-3" value="+nationalID : int" style="text;align=left;verticalAlign=top;spacingLeft=4;spacingRight=4;overflow=hidden;rotatable=0;points=[[0,0.5],[1,0.5]];portConstraint=eastwest;" vertex="1" parent="6BHXMDmVlEBjsqxJzx_9-2">
          <mxGeometry y="26" width="280" height="26" as="geometry" />
        </mxCell>
        <mxCell id="6BHXMDmVlEBjsqxJzx_9-4" value="+fullName:String" style="text;align=left;verticalAlign=top;spacingLeft=4;spacingRight=4;overflow=hidden;rotatable=0;points=[[0,0.5],[1,0.5]];portConstraint=eastwest;rounded=0;shadow=0;html=0;" vertex="1" parent="6BHXMDmVlEBjsqxJzx_9-2">
          <mxGeometry y="52" width="280" height="26" as="geometry" />
        </mxCell>
        <mxCell id="6BHXMDmVlEBjsqxJzx_9-5" value="+address: String" style="text;align=left;verticalAlign=top;spacingLeft=4;spacingRight=4;overflow=hidden;rotatable=0;points=[[0,0.5],[1,0.5]];portConstraint=eastwest;" vertex="1" parent="6BHXMDmVlEBjsqxJzx_9-2">
          <mxGeometry y="78" width="280" height="26" as="geometry" />
        </mxCell>
        <mxCell id="6BHXMDmVlEBjsqxJzx_9-6" value="+phoneNumber: int" style="text;align=left;verticalAlign=top;spacingLeft=4;spacingRight=4;overflow=hidden;rotatable=0;points=[[0,0.5],[1,0.5]];portConstraint=eastwest;" vertex="1" parent="6BHXMDmVlEBjsqxJzx_9-2">
          <mxGeometry y="104" width="280" height="26" as="geometry" />
        </mxCell>
        <mxCell id="6BHXMDmVlEBjsqxJzx_9-7" value="+email: String" style="text;align=left;verticalAlign=top;spacingLeft=4;spacingRight=4;overflow=hidden;rotatable=0;points=[[0,0.5],[1,0.5]];portConstraint=eastwest;" vertex="1" parent="6BHXMDmVlEBjsqxJzx_9-2">
          <mxGeometry y="130" width="280" height="26" as="geometry" />
        </mxCell>
        <mxCell id="6BHXMDmVlEBjsqxJzx_9-8" value="+accounts : Arraylist &lt;Account&gt;" style="text;align=left;verticalAlign=top;spacingLeft=4;spacingRight=4;overflow=hidden;rotatable=0;points=[[0,0.5],[1,0.5]];portConstraint=eastwest;" vertex="1" parent="6BHXMDmVlEBjsqxJzx_9-2">
          <mxGeometry y="156" width="280" height="26" as="geometry" />
        </mxCell>
        <mxCell id="6BHXMDmVlEBjsqxJzx_9-9" value="+ points: points" style="text;strokeColor=none;fillColor=none;align=left;verticalAlign=top;spacingLeft=4;spacingRight=4;overflow=hidden;rotatable=0;points=[[0,0.5],[1,0.5]];portConstraint=eastwest;whiteSpace=wrap;html=1;" vertex="1" parent="6BHXMDmVlEBjsqxJzx_9-2">
          <mxGeometry y="182" width="280" height="26" as="geometry" />
        </mxCell>
        <mxCell id="6BHXMDmVlEBjsqxJzx_9-10" value="" style="line;strokeWidth=1;fillColor=none;align=left;verticalAlign=middle;spacingTop=-1;spacingLeft=3;spacingRight=3;rotatable=0;labelPosition=right;points=[];portConstraint=eastwest;strokeColor=inherit;" vertex="1" parent="6BHXMDmVlEBjsqxJzx_9-2">
          <mxGeometry y="208" width="280" height="8" as="geometry" />
        </mxCell>
        <mxCell id="6BHXMDmVlEBjsqxJzx_9-11" value="+Client( int, String, String, int String) " style="text;align=left;verticalAlign=top;spacingLeft=4;spacingRight=4;overflow=hidden;rotatable=0;points=[[0,0.5],[1,0.5]];portConstraint=eastwest;" vertex="1" parent="6BHXMDmVlEBjsqxJzx_9-2">
          <mxGeometry y="216" width="280" height="26" as="geometry" />
        </mxCell>
        <mxCell id="6BHXMDmVlEBjsqxJzx_9-12" value="+openAccount(): void&#xa;" style="text;align=left;verticalAlign=top;spacingLeft=4;spacingRight=4;overflow=hidden;rotatable=0;points=[[0,0.5],[1,0.5]];portConstraint=eastwest;" vertex="1" parent="6BHXMDmVlEBjsqxJzx_9-2">
          <mxGeometry y="242" width="280" height="26" as="geometry" />
        </mxCell>
        <mxCell id="6BHXMDmVlEBjsqxJzx_9-13" value="+closeAccount(int):void" style="text;align=left;verticalAlign=top;spacingLeft=4;spacingRight=4;overflow=hidden;rotatable=0;points=[[0,0.5],[1,0.5]];portConstraint=eastwest;" vertex="1" parent="6BHXMDmVlEBjsqxJzx_9-2">
          <mxGeometry y="268" width="280" height="26" as="geometry" />
        </mxCell>
        <mxCell id="6BHXMDmVlEBjsqxJzx_9-14" value="+applyForLoan(double, double, String ):void" style="text;align=left;verticalAlign=top;spacingLeft=4;spacingRight=4;overflow=hidden;rotatable=0;points=[[0,0.5],[1,0.5]];portConstraint=eastwest;" vertex="1" parent="6BHXMDmVlEBjsqxJzx_9-2">
          <mxGeometry y="294" width="280" height="26" as="geometry" />
        </mxCell>
        <mxCell id="6BHXMDmVlEBjsqxJzx_9-15" value="+applyForCreditCard():void" style="text;strokeColor=none;fillColor=none;align=left;verticalAlign=top;spacingLeft=4;spacingRight=4;overflow=hidden;rotatable=0;points=[[0,0.5],[1,0.5]];portConstraint=eastwest;whiteSpace=wrap;html=1;" vertex="1" parent="6BHXMDmVlEBjsqxJzx_9-2">
          <mxGeometry y="320" width="280" height="26" as="geometry" />
        </mxCell>
        <mxCell id="6BHXMDmVlEBjsqxJzx_9-16" style="edgeStyle=orthogonalEdgeStyle;rounded=0;orthogonalLoop=1;jettySize=auto;html=1;exitX=1;exitY=0.5;exitDx=0;exitDy=0;" edge="1" parent="6BHXMDmVlEBjsqxJzx_9-2" source="6BHXMDmVlEBjsqxJzx_9-15" target="6BHXMDmVlEBjsqxJzx_9-15">
          <mxGeometry relative="1" as="geometry" />
        </mxCell>
        <mxCell id="6BHXMDmVlEBjsqxJzx_9-17" value="+ setReminder(String, date): void" style="text;strokeColor=none;fillColor=none;align=left;verticalAlign=top;spacingLeft=4;spacingRight=4;overflow=hidden;rotatable=0;points=[[0,0.5],[1,0.5]];portConstraint=eastwest;whiteSpace=wrap;html=1;" vertex="1" parent="6BHXMDmVlEBjsqxJzx_9-2">
          <mxGeometry y="346" width="280" height="26" as="geometry" />
        </mxCell>
        <mxCell id="6BHXMDmVlEBjsqxJzx_9-18" value="+ reportIssue(String): int" style="text;strokeColor=none;fillColor=none;align=left;verticalAlign=top;spacingLeft=4;spacingRight=4;overflow=hidden;rotatable=0;points=[[0,0.5],[1,0.5]];portConstraint=eastwest;whiteSpace=wrap;html=1;" vertex="1" parent="6BHXMDmVlEBjsqxJzx_9-2">
          <mxGeometry y="372" width="280" height="26" as="geometry" />
        </mxCell>
        <mxCell id="6BHXMDmVlEBjsqxJzx_9-19" value="+displayData(): void" style="text;strokeColor=none;fillColor=none;align=left;verticalAlign=top;spacingLeft=4;spacingRight=4;overflow=hidden;rotatable=0;points=[[0,0.5],[1,0.5]];portConstraint=eastwest;whiteSpace=wrap;html=1;" vertex="1" parent="6BHXMDmVlEBjsqxJzx_9-2">
          <mxGeometry y="398" width="280" height="26" as="geometry" />
        </mxCell>
        <mxCell id="6BHXMDmVlEBjsqxJzx_9-20" value="+ redeemPoints (int) : void" style="text;strokeColor=none;fillColor=none;align=left;verticalAlign=top;spacingLeft=4;spacingRight=4;overflow=hidden;rotatable=0;points=[[0,0.5],[1,0.5]];portConstraint=eastwest;whiteSpace=wrap;html=1;" vertex="1" parent="6BHXMDmVlEBjsqxJzx_9-2">
          <mxGeometry y="424" width="280" height="26" as="geometry" />
        </mxCell>
        <mxCell id="6BHXMDmVlEBjsqxJzx_9-21" value="" style="endArrow=block;endSize=10;endFill=0;shadow=0;strokeWidth=1;rounded=0;edgeStyle=elbowEdgeStyle;elbow=vertical;exitX=0.408;exitY=-0.009;exitDx=0;exitDy=0;exitPerimeter=0;entryX=0.34;entryY=1.229;entryDx=0;entryDy=0;entryPerimeter=0;" edge="1" parent="1" source="6BHXMDmVlEBjsqxJzx_9-2" target="6BHXMDmVlEBjsqxJzx_9-39">
          <mxGeometry width="160" relative="1" as="geometry">
            <mxPoint x="120" y="334" as="sourcePoint" />
            <mxPoint x="525" y="250" as="targetPoint" />
            <Array as="points">
              <mxPoint x="80" y="330" />
              <mxPoint x="293" y="295" />
              <mxPoint x="290" y="295" />
            </Array>
          </mxGeometry>
        </mxCell>
        <mxCell id="6BHXMDmVlEBjsqxJzx_9-22" value="" style="endArrow=block;endSize=10;endFill=0;shadow=0;strokeWidth=1;rounded=0;edgeStyle=elbowEdgeStyle;elbow=vertical;exitX=0.48;exitY=0.007;exitDx=0;exitDy=0;exitPerimeter=0;entryX=0.488;entryY=1.101;entryDx=0;entryDy=0;entryPerimeter=0;" edge="1" parent="1" source="6BHXMDmVlEBjsqxJzx_9-40" target="6BHXMDmVlEBjsqxJzx_9-39">
          <mxGeometry width="160" relative="1" as="geometry">
            <mxPoint x="566.24" y="334.07000000000005" as="sourcePoint" />
            <mxPoint x="560" y="250" as="targetPoint" />
            <Array as="points">
              <mxPoint x="560" y="340" />
              <mxPoint x="580" y="320" />
              <mxPoint x="380" y="200" />
              <mxPoint x="620" y="295" />
              <mxPoint x="620" y="285" />
              <mxPoint x="560" y="302" />
            </Array>
          </mxGeometry>
        </mxCell>
        <mxCell id="6BHXMDmVlEBjsqxJzx_9-23" value="" style="endArrow=block;endSize=10;endFill=0;shadow=0;strokeWidth=1;rounded=0;edgeStyle=elbowEdgeStyle;elbow=vertical;exitX=0.425;exitY=-0.011;exitDx=0;exitDy=0;exitPerimeter=0;entryX=0.584;entryY=1.156;entryDx=0;entryDy=0;entryPerimeter=0;" edge="1" parent="1" source="6BHXMDmVlEBjsqxJzx_9-24" target="6BHXMDmVlEBjsqxJzx_9-39">
          <mxGeometry width="160" relative="1" as="geometry">
            <mxPoint x="720" y="328" as="sourcePoint" />
            <mxPoint x="588" y="250" as="targetPoint" />
            <Array as="points">
              <mxPoint x="690" y="330" />
              <mxPoint x="590" y="295" />
              <mxPoint x="580" y="295" />
              <mxPoint x="560" y="295" />
              <mxPoint x="719" y="295" />
            </Array>
          </mxGeometry>
        </mxCell>
        <mxCell id="6BHXMDmVlEBjsqxJzx_9-24" value="Admin" style="swimlane;fontStyle=0;childLayout=stackLayout;horizontal=1;startSize=26;fillColor=none;horizontalStack=0;resizeParent=1;resizeParentMax=0;resizeLast=0;collapsible=1;marginBottom=0;whiteSpace=wrap;html=1;" vertex="1" parent="1">
          <mxGeometry x="674" y="360" width="236" height="196" as="geometry" />
        </mxCell>
        <mxCell id="6BHXMDmVlEBjsqxJzx_9-25" value="" style="line;strokeWidth=1;fillColor=none;align=left;verticalAlign=middle;spacingTop=-1;spacingLeft=3;spacingRight=3;rotatable=0;labelPosition=right;points=[];portConstraint=eastwest;strokeColor=inherit;" vertex="1" parent="6BHXMDmVlEBjsqxJzx_9-24">
          <mxGeometry y="26" width="236" height="8" as="geometry" />
        </mxCell>
        <mxCell id="6BHXMDmVlEBjsqxJzx_9-26" value="+ Admin( )&amp;nbsp;" style="text;strokeColor=none;fillColor=none;align=left;verticalAlign=top;spacingLeft=4;spacingRight=4;overflow=hidden;rotatable=0;points=[[0,0.5],[1,0.5]];portConstraint=eastwest;whiteSpace=wrap;html=1;" vertex="1" parent="6BHXMDmVlEBjsqxJzx_9-24">
          <mxGeometry y="34" width="236" height="26" as="geometry" />
        </mxCell>
        <mxCell id="6BHXMDmVlEBjsqxJzx_9-27" value="+ removeUser(int): void" style="text;strokeColor=none;fillColor=none;align=left;verticalAlign=top;spacingLeft=4;spacingRight=4;overflow=hidden;rotatable=0;points=[[0,0.5],[1,0.5]];portConstraint=eastwest;whiteSpace=wrap;html=1;" vertex="1" parent="6BHXMDmVlEBjsqxJzx_9-24">
          <mxGeometry y="60" width="236" height="26" as="geometry" />
        </mxCell>
        <mxCell id="6BHXMDmVlEBjsqxJzx_9-28" value="+ updateBranches(String , String): void" style="text;strokeColor=none;fillColor=none;align=left;verticalAlign=top;spacingLeft=4;spacingRight=4;overflow=hidden;rotatable=0;points=[[0,0.5],[1,0.5]];portConstraint=eastwest;whiteSpace=wrap;html=1;" vertex="1" parent="6BHXMDmVlEBjsqxJzx_9-24">
          <mxGeometry y="86" width="236" height="26" as="geometry" />
        </mxCell>
        <mxCell id="6BHXMDmVlEBjsqxJzx_9-29" value="+ blockUser(int): void" style="text;strokeColor=none;fillColor=none;align=left;verticalAlign=top;spacingLeft=4;spacingRight=4;overflow=hidden;rotatable=0;points=[[0,0.5],[1,0.5]];portConstraint=eastwest;whiteSpace=wrap;html=1;" vertex="1" parent="6BHXMDmVlEBjsqxJzx_9-24">
          <mxGeometry y="112" width="236" height="26" as="geometry" />
        </mxCell>
        <mxCell id="6BHXMDmVlEBjsqxJzx_9-30" value="+ unBlockUser(int): void" style="text;strokeColor=none;fillColor=none;align=left;verticalAlign=top;spacingLeft=4;spacingRight=4;overflow=hidden;rotatable=0;points=[[0,0.5],[1,0.5]];portConstraint=eastwest;whiteSpace=wrap;html=1;" vertex="1" parent="6BHXMDmVlEBjsqxJzx_9-24">
          <mxGeometry y="138" width="236" height="26" as="geometry" />
        </mxCell>
        <mxCell id="6BHXMDmVlEBjsqxJzx_9-31" value="+ addUser( String,&amp;nbsp; String,&amp;nbsp; int,&amp;nbsp; date, ): int&amp;nbsp;" style="text;strokeColor=none;fillColor=none;align=left;verticalAlign=top;spacingLeft=4;spacingRight=4;overflow=hidden;rotatable=0;points=[[0,0.5],[1,0.5]];portConstraint=eastwest;whiteSpace=wrap;html=1;" vertex="1" parent="6BHXMDmVlEBjsqxJzx_9-24">
          <mxGeometry y="164" width="236" height="32" as="geometry" />
        </mxCell>
        <mxCell id="6BHXMDmVlEBjsqxJzx_9-32" value="&lt;span style=&quot;font-weight: normal;&quot;&gt;User&lt;/span&gt;" style="swimlane;fontStyle=1;align=center;verticalAlign=top;childLayout=stackLayout;horizontal=1;startSize=26;horizontalStack=0;resizeParent=1;resizeParentMax=0;resizeLast=0;collapsible=1;marginBottom=0;whiteSpace=wrap;html=1;" vertex="1" parent="1">
          <mxGeometry x="430" y="60" width="270" height="216" as="geometry" />
        </mxCell>
        <mxCell id="6BHXMDmVlEBjsqxJzx_9-33" value="+ userName String" style="text;strokeColor=none;fillColor=none;align=left;verticalAlign=top;spacingLeft=4;spacingRight=4;overflow=hidden;rotatable=0;points=[[0,0.5],[1,0.5]];portConstraint=eastwest;whiteSpace=wrap;html=1;" vertex="1" parent="6BHXMDmVlEBjsqxJzx_9-32">
          <mxGeometry y="26" width="270" height="26" as="geometry" />
        </mxCell>
        <mxCell id="6BHXMDmVlEBjsqxJzx_9-34" value="+ password String" style="text;strokeColor=none;fillColor=none;align=left;verticalAlign=top;spacingLeft=4;spacingRight=4;overflow=hidden;rotatable=0;points=[[0,0.5],[1,0.5]];portConstraint=eastwest;whiteSpace=wrap;html=1;" vertex="1" parent="6BHXMDmVlEBjsqxJzx_9-32">
          <mxGeometry y="52" width="270" height="26" as="geometry" />
        </mxCell>
        <mxCell id="6BHXMDmVlEBjsqxJzx_9-35" value="" style="line;strokeWidth=1;fillColor=none;align=left;verticalAlign=middle;spacingTop=-1;spacingLeft=3;spacingRight=3;rotatable=0;labelPosition=right;points=[];portConstraint=eastwest;strokeColor=inherit;" vertex="1" parent="6BHXMDmVlEBjsqxJzx_9-32">
          <mxGeometry y="78" width="270" height="22" as="geometry" />
        </mxCell>
        <mxCell id="6BHXMDmVlEBjsqxJzx_9-36" value="+User(String, String)" style="text;strokeColor=none;fillColor=none;align=left;verticalAlign=top;spacingLeft=4;spacingRight=4;overflow=hidden;rotatable=0;points=[[0,0.5],[1,0.5]];portConstraint=eastwest;whiteSpace=wrap;html=1;" vertex="1" parent="6BHXMDmVlEBjsqxJzx_9-32">
          <mxGeometry y="100" width="270" height="26" as="geometry" />
        </mxCell>
        <mxCell id="6BHXMDmVlEBjsqxJzx_9-37" value="+ registerUser( String,&amp;nbsp; String,&amp;nbsp; int,&amp;nbsp; date ): void&amp;nbsp;" style="text;strokeColor=none;fillColor=none;align=left;verticalAlign=top;spacingLeft=4;spacingRight=4;overflow=hidden;rotatable=0;points=[[0,0.5],[1,0.5]];portConstraint=eastwest;whiteSpace=wrap;html=1;" vertex="1" parent="6BHXMDmVlEBjsqxJzx_9-32">
          <mxGeometry y="126" width="270" height="32" as="geometry" />
        </mxCell>
        <mxCell id="6BHXMDmVlEBjsqxJzx_9-38" value="+ login( String,&amp;nbsp; String ): void&amp;nbsp;" style="text;strokeColor=none;fillColor=none;align=left;verticalAlign=top;spacingLeft=4;spacingRight=4;overflow=hidden;rotatable=0;points=[[0,0.5],[1,0.5]];portConstraint=eastwest;whiteSpace=wrap;html=1;" vertex="1" parent="6BHXMDmVlEBjsqxJzx_9-32">
          <mxGeometry y="158" width="270" height="32" as="geometry" />
        </mxCell>
        <mxCell id="6BHXMDmVlEBjsqxJzx_9-39" value="+displayData(): void" style="text;strokeColor=none;fillColor=none;align=left;verticalAlign=top;spacingLeft=4;spacingRight=4;overflow=hidden;rotatable=0;points=[[0,0.5],[1,0.5]];portConstraint=eastwest;whiteSpace=wrap;html=1;" vertex="1" parent="6BHXMDmVlEBjsqxJzx_9-32">
          <mxGeometry y="190" width="270" height="26" as="geometry" />
        </mxCell>
        <mxCell id="6BHXMDmVlEBjsqxJzx_9-40" value="Banker" style="swimlane;fontStyle=0;align=center;verticalAlign=top;childLayout=stackLayout;horizontal=1;startSize=26;horizontalStack=0;resizeParent=1;resizeLast=0;collapsible=1;marginBottom=0;rounded=0;shadow=0;strokeWidth=1;" vertex="1" parent="1">
          <mxGeometry x="540" y="630" width="220" height="255" as="geometry">
            <mxRectangle x="130" y="380" width="160" height="26" as="alternateBounds" />
          </mxGeometry>
        </mxCell>
        <mxCell id="6BHXMDmVlEBjsqxJzx_9-41" value="+ nationalID : int" style="text;align=left;verticalAlign=top;spacingLeft=4;spacingRight=4;overflow=hidden;rotatable=0;points=[[0,0.5],[1,0.5]];portConstraint=eastwest;" vertex="1" parent="6BHXMDmVlEBjsqxJzx_9-40">
          <mxGeometry y="26" width="220" height="26" as="geometry" />
        </mxCell>
        <mxCell id="6BHXMDmVlEBjsqxJzx_9-42" value="+ fullName:String" style="text;align=left;verticalAlign=top;spacingLeft=4;spacingRight=4;overflow=hidden;rotatable=0;points=[[0,0.5],[1,0.5]];portConstraint=eastwest;rounded=0;shadow=0;html=0;" vertex="1" parent="6BHXMDmVlEBjsqxJzx_9-40">
          <mxGeometry y="52" width="220" height="26" as="geometry" />
        </mxCell>
        <mxCell id="6BHXMDmVlEBjsqxJzx_9-43" value="+ address: String" style="text;align=left;verticalAlign=top;spacingLeft=4;spacingRight=4;overflow=hidden;rotatable=0;points=[[0,0.5],[1,0.5]];portConstraint=eastwest;" vertex="1" parent="6BHXMDmVlEBjsqxJzx_9-40">
          <mxGeometry y="78" width="220" height="26" as="geometry" />
        </mxCell>
        <mxCell id="6BHXMDmVlEBjsqxJzx_9-44" value="+ phoneNumber: int" style="text;align=left;verticalAlign=top;spacingLeft=4;spacingRight=4;overflow=hidden;rotatable=0;points=[[0,0.5],[1,0.5]];portConstraint=eastwest;" vertex="1" parent="6BHXMDmVlEBjsqxJzx_9-40">
          <mxGeometry y="104" width="220" height="26" as="geometry" />
        </mxCell>
        <mxCell id="6BHXMDmVlEBjsqxJzx_9-45" value="+ email: String " style="text;align=left;verticalAlign=top;spacingLeft=4;spacingRight=4;overflow=hidden;rotatable=0;points=[[0,0.5],[1,0.5]];portConstraint=eastwest;" vertex="1" parent="6BHXMDmVlEBjsqxJzx_9-40">
          <mxGeometry y="130" width="220" height="30" as="geometry" />
        </mxCell>
        <mxCell id="6BHXMDmVlEBjsqxJzx_9-46" value="" style="line;strokeWidth=1;fillColor=none;align=left;verticalAlign=middle;spacingTop=-1;spacingLeft=3;spacingRight=3;rotatable=0;labelPosition=right;points=[];portConstraint=eastwest;strokeColor=inherit;" vertex="1" parent="6BHXMDmVlEBjsqxJzx_9-40">
          <mxGeometry y="160" width="220" height="8" as="geometry" />
        </mxCell>
        <mxCell id="6BHXMDmVlEBjsqxJzx_9-47" value="+ Banker (int, String, String , int, String)" style="text;strokeColor=none;fillColor=none;align=left;verticalAlign=top;spacingLeft=4;spacingRight=4;overflow=hidden;rotatable=0;points=[[0,0.5],[1,0.5]];portConstraint=eastwest;whiteSpace=wrap;html=1;" vertex="1" parent="6BHXMDmVlEBjsqxJzx_9-40">
          <mxGeometry y="168" width="220" height="32" as="geometry" />
        </mxCell>
        <mxCell id="6BHXMDmVlEBjsqxJzx_9-48" value="+ rejectLoan(int): void" style="text;strokeColor=none;fillColor=none;align=left;verticalAlign=top;spacingLeft=4;spacingRight=4;overflow=hidden;rotatable=0;points=[[0,0.5],[1,0.5]];portConstraint=eastwest;whiteSpace=wrap;html=1;" vertex="1" parent="6BHXMDmVlEBjsqxJzx_9-40">
          <mxGeometry y="200" width="220" height="26" as="geometry" />
        </mxCell>
        <mxCell id="6BHXMDmVlEBjsqxJzx_9-49" value="+ acceptLoan(Int): void" style="text;strokeColor=none;fillColor=none;align=left;verticalAlign=top;spacingLeft=4;spacingRight=4;overflow=hidden;rotatable=0;points=[[0,0.5],[1,0.5]];portConstraint=eastwest;whiteSpace=wrap;html=1;" vertex="1" parent="6BHXMDmVlEBjsqxJzx_9-40">
          <mxGeometry y="226" width="220" height="26" as="geometry" />
        </mxCell>
        <mxCell id="6BHXMDmVlEBjsqxJzx_9-50" value="Credit_Card" style="swimlane;fontStyle=0;childLayout=stackLayout;horizontal=1;startSize=26;fillColor=none;horizontalStack=0;resizeParent=1;resizeParentMax=0;resizeLast=0;collapsible=1;marginBottom=0;whiteSpace=wrap;html=1;" vertex="1" parent="1">
          <mxGeometry x="-170" y="-440" width="250" height="346" as="geometry" />
        </mxCell>
        <mxCell id="6BHXMDmVlEBjsqxJzx_9-51" value="+ creditCardNumber: int" style="text;strokeColor=none;fillColor=none;align=left;verticalAlign=top;spacingLeft=4;spacingRight=4;overflow=hidden;rotatable=0;points=[[0,0.5],[1,0.5]];portConstraint=eastwest;whiteSpace=wrap;html=1;" vertex="1" parent="6BHXMDmVlEBjsqxJzx_9-50">
          <mxGeometry y="26" width="250" height="26" as="geometry" />
        </mxCell>
        <mxCell id="6BHXMDmVlEBjsqxJzx_9-52" value="+ monthlyIncome: int" style="text;strokeColor=none;fillColor=none;align=left;verticalAlign=top;spacingLeft=4;spacingRight=4;overflow=hidden;rotatable=0;points=[[0,0.5],[1,0.5]];portConstraint=eastwest;whiteSpace=wrap;html=1;" vertex="1" parent="6BHXMDmVlEBjsqxJzx_9-50">
          <mxGeometry y="52" width="250" height="26" as="geometry" />
        </mxCell>
        <mxCell id="6BHXMDmVlEBjsqxJzx_9-53" value="+ limit: int" style="text;strokeColor=none;fillColor=none;align=left;verticalAlign=top;spacingLeft=4;spacingRight=4;overflow=hidden;rotatable=0;points=[[0,0.5],[1,0.5]];portConstraint=eastwest;whiteSpace=wrap;html=1;" vertex="1" parent="6BHXMDmVlEBjsqxJzx_9-50">
          <mxGeometry y="78" width="250" height="26" as="geometry" />
        </mxCell>
        <mxCell id="6BHXMDmVlEBjsqxJzx_9-54" value="+ pin: int" style="text;strokeColor=none;fillColor=none;align=left;verticalAlign=top;spacingLeft=4;spacingRight=4;overflow=hidden;rotatable=0;points=[[0,0.5],[1,0.5]];portConstraint=eastwest;whiteSpace=wrap;html=1;" vertex="1" parent="6BHXMDmVlEBjsqxJzx_9-50">
          <mxGeometry y="104" width="250" height="26" as="geometry" />
        </mxCell>
        <mxCell id="6BHXMDmVlEBjsqxJzx_9-55" value="+ dateIssued: date" style="text;strokeColor=none;fillColor=none;align=left;verticalAlign=top;spacingLeft=4;spacingRight=4;overflow=hidden;rotatable=0;points=[[0,0.5],[1,0.5]];portConstraint=eastwest;whiteSpace=wrap;html=1;" vertex="1" parent="6BHXMDmVlEBjsqxJzx_9-50">
          <mxGeometry y="130" width="250" height="26" as="geometry" />
        </mxCell>
        <mxCell id="6BHXMDmVlEBjsqxJzx_9-56" value="+ type: String" style="text;strokeColor=none;fillColor=none;align=left;verticalAlign=top;spacingLeft=4;spacingRight=4;overflow=hidden;rotatable=0;points=[[0,0.5],[1,0.5]];portConstraint=eastwest;whiteSpace=wrap;html=1;" vertex="1" parent="6BHXMDmVlEBjsqxJzx_9-50">
          <mxGeometry y="156" width="250" height="26" as="geometry" />
        </mxCell>
        <mxCell id="6BHXMDmVlEBjsqxJzx_9-57" value="+ currentBalance: int" style="text;strokeColor=none;fillColor=none;align=left;verticalAlign=top;spacingLeft=4;spacingRight=4;overflow=hidden;rotatable=0;points=[[0,0.5],[1,0.5]];portConstraint=eastwest;whiteSpace=wrap;html=1;" vertex="1" parent="6BHXMDmVlEBjsqxJzx_9-50">
          <mxGeometry y="182" width="250" height="26" as="geometry" />
        </mxCell>
        <mxCell id="6BHXMDmVlEBjsqxJzx_9-58" value="+ expiryDate: date" style="text;strokeColor=none;fillColor=none;align=left;verticalAlign=top;spacingLeft=4;spacingRight=4;overflow=hidden;rotatable=0;points=[[0,0.5],[1,0.5]];portConstraint=eastwest;whiteSpace=wrap;html=1;" vertex="1" parent="6BHXMDmVlEBjsqxJzx_9-50">
          <mxGeometry y="208" width="250" height="26" as="geometry" />
        </mxCell>
        <mxCell id="6BHXMDmVlEBjsqxJzx_9-59" value="" style="line;strokeWidth=1;fillColor=none;align=left;verticalAlign=middle;spacingTop=-1;spacingLeft=3;spacingRight=3;rotatable=0;labelPosition=right;points=[];portConstraint=eastwest;strokeColor=inherit;" vertex="1" parent="6BHXMDmVlEBjsqxJzx_9-50">
          <mxGeometry y="234" width="250" height="22" as="geometry" />
        </mxCell>
        <mxCell id="6BHXMDmVlEBjsqxJzx_9-60" value="+ CreditCard(int, int, String, date)&amp;nbsp;" style="text;strokeColor=none;fillColor=none;align=left;verticalAlign=top;spacingLeft=4;spacingRight=4;overflow=hidden;rotatable=0;points=[[0,0.5],[1,0.5]];portConstraint=eastwest;whiteSpace=wrap;html=1;" vertex="1" parent="6BHXMDmVlEBjsqxJzx_9-50">
          <mxGeometry y="256" width="250" height="28" as="geometry" />
        </mxCell>
        <mxCell id="6BHXMDmVlEBjsqxJzx_9-61" value="+ displayData(): void" style="text;strokeColor=none;fillColor=none;align=left;verticalAlign=top;spacingLeft=4;spacingRight=4;overflow=hidden;rotatable=0;points=[[0,0.5],[1,0.5]];portConstraint=eastwest;whiteSpace=wrap;html=1;" vertex="1" parent="6BHXMDmVlEBjsqxJzx_9-50">
          <mxGeometry y="284" width="250" height="26" as="geometry" />
        </mxCell>
        <mxCell id="6BHXMDmVlEBjsqxJzx_9-62" value="+ getStatus():String" style="text;strokeColor=none;fillColor=none;align=left;verticalAlign=top;spacingLeft=4;spacingRight=4;overflow=hidden;rotatable=0;points=[[0,0.5],[1,0.5]];portConstraint=eastwest;whiteSpace=wrap;html=1;" vertex="1" parent="6BHXMDmVlEBjsqxJzx_9-50">
          <mxGeometry y="310" width="250" height="36" as="geometry" />
        </mxCell>
        <mxCell id="6BHXMDmVlEBjsqxJzx_9-63" value="Loan" style="swimlane;fontStyle=0;childLayout=stackLayout;horizontal=1;startSize=26;fillColor=none;horizontalStack=0;resizeParent=1;resizeParentMax=0;resizeLast=0;collapsible=1;marginBottom=0;whiteSpace=wrap;html=1;" vertex="1" parent="1">
          <mxGeometry x="-480" y="130" width="210" height="296" as="geometry" />
        </mxCell>
        <mxCell id="6BHXMDmVlEBjsqxJzx_9-64" value="+ loanID:int" style="text;strokeColor=none;fillColor=none;align=left;verticalAlign=top;spacingLeft=4;spacingRight=4;overflow=hidden;rotatable=0;points=[[0,0.5],[1,0.5]];portConstraint=eastwest;whiteSpace=wrap;html=1;" vertex="1" parent="6BHXMDmVlEBjsqxJzx_9-63">
          <mxGeometry y="26" width="210" height="26" as="geometry" />
        </mxCell>
        <mxCell id="6BHXMDmVlEBjsqxJzx_9-65" value="+ loanType:String" style="text;strokeColor=none;fillColor=none;align=left;verticalAlign=top;spacingLeft=4;spacingRight=4;overflow=hidden;rotatable=0;points=[[0,0.5],[1,0.5]];portConstraint=eastwest;whiteSpace=wrap;html=1;" vertex="1" parent="6BHXMDmVlEBjsqxJzx_9-63">
          <mxGeometry y="52" width="210" height="26" as="geometry" />
        </mxCell>
        <mxCell id="6BHXMDmVlEBjsqxJzx_9-66" value="+ loanPurpose:String" style="text;strokeColor=none;fillColor=none;align=left;verticalAlign=top;spacingLeft=4;spacingRight=4;overflow=hidden;rotatable=0;points=[[0,0.5],[1,0.5]];portConstraint=eastwest;whiteSpace=wrap;html=1;" vertex="1" parent="6BHXMDmVlEBjsqxJzx_9-63">
          <mxGeometry y="78" width="210" height="26" as="geometry" />
        </mxCell>
        <mxCell id="6BHXMDmVlEBjsqxJzx_9-67" value="+ dateIssued: Date" style="text;strokeColor=none;fillColor=none;align=left;verticalAlign=top;spacingLeft=4;spacingRight=4;overflow=hidden;rotatable=0;points=[[0,0.5],[1,0.5]];portConstraint=eastwest;whiteSpace=wrap;html=1;" vertex="1" parent="6BHXMDmVlEBjsqxJzx_9-63">
          <mxGeometry y="104" width="210" height="26" as="geometry" />
        </mxCell>
        <mxCell id="6BHXMDmVlEBjsqxJzx_9-68" value="+ Status : String" style="text;strokeColor=none;fillColor=none;align=left;verticalAlign=top;spacingLeft=4;spacingRight=4;overflow=hidden;rotatable=0;points=[[0,0.5],[1,0.5]];portConstraint=eastwest;whiteSpace=wrap;html=1;" vertex="1" parent="6BHXMDmVlEBjsqxJzx_9-63">
          <mxGeometry y="130" width="210" height="26" as="geometry" />
        </mxCell>
        <mxCell id="6BHXMDmVlEBjsqxJzx_9-69" value="+ dueAmount: Double" style="text;strokeColor=none;fillColor=none;align=left;verticalAlign=top;spacingLeft=4;spacingRight=4;overflow=hidden;rotatable=0;points=[[0,0.5],[1,0.5]];portConstraint=eastwest;whiteSpace=wrap;html=1;" vertex="1" parent="6BHXMDmVlEBjsqxJzx_9-63">
          <mxGeometry y="156" width="210" height="26" as="geometry" />
        </mxCell>
        <mxCell id="6BHXMDmVlEBjsqxJzx_9-70" value="+ loanedAmount:Double" style="text;strokeColor=none;fillColor=none;align=left;verticalAlign=top;spacingLeft=4;spacingRight=4;overflow=hidden;rotatable=0;points=[[0,0.5],[1,0.5]];portConstraint=eastwest;whiteSpace=wrap;html=1;" vertex="1" parent="6BHXMDmVlEBjsqxJzx_9-63">
          <mxGeometry y="182" width="210" height="26" as="geometry" />
        </mxCell>
        <mxCell id="6BHXMDmVlEBjsqxJzx_9-71" value="+ monthlyIncome: double" style="text;strokeColor=none;fillColor=none;align=left;verticalAlign=top;spacingLeft=4;spacingRight=4;overflow=hidden;rotatable=0;points=[[0,0.5],[1,0.5]];portConstraint=eastwest;whiteSpace=wrap;html=1;" vertex="1" parent="6BHXMDmVlEBjsqxJzx_9-63">
          <mxGeometry y="208" width="210" height="26" as="geometry" />
        </mxCell>
        <mxCell id="6BHXMDmVlEBjsqxJzx_9-72" value="" style="line;strokeWidth=1;fillColor=none;align=left;verticalAlign=middle;spacingTop=-1;spacingLeft=3;spacingRight=3;rotatable=0;labelPosition=right;points=[];portConstraint=eastwest;strokeColor=inherit;" vertex="1" parent="6BHXMDmVlEBjsqxJzx_9-63">
          <mxGeometry y="234" width="210" height="8" as="geometry" />
        </mxCell>
        <mxCell id="6BHXMDmVlEBjsqxJzx_9-73" value="+Loan(String, String, double, double)" style="text;strokeColor=none;fillColor=none;align=left;verticalAlign=top;spacingLeft=4;spacingRight=4;overflow=hidden;rotatable=0;points=[[0,0.5],[1,0.5]];portConstraint=eastwest;whiteSpace=wrap;html=1;" vertex="1" parent="6BHXMDmVlEBjsqxJzx_9-63">
          <mxGeometry y="242" width="210" height="28" as="geometry" />
        </mxCell>
        <mxCell id="6BHXMDmVlEBjsqxJzx_9-74" value="+displayDetails():void" style="text;strokeColor=none;fillColor=none;align=left;verticalAlign=top;spacingLeft=4;spacingRight=4;overflow=hidden;rotatable=0;points=[[0,0.5],[1,0.5]];portConstraint=eastwest;whiteSpace=wrap;html=1;" vertex="1" parent="6BHXMDmVlEBjsqxJzx_9-63">
          <mxGeometry y="270" width="210" height="26" as="geometry" />
        </mxCell>
        <mxCell id="6BHXMDmVlEBjsqxJzx_9-75" value="" style="endArrow=none;html=1;rounded=0;exitX=0.125;exitY=-0.002;exitDx=0;exitDy=0;exitPerimeter=0;entryX=0.51;entryY=1.012;entryDx=0;entryDy=0;entryPerimeter=0;" edge="1" parent="1" source="6BHXMDmVlEBjsqxJzx_9-2" target="6BHXMDmVlEBjsqxJzx_9-62">
          <mxGeometry relative="1" as="geometry">
            <mxPoint x="-75" y="472" as="sourcePoint" />
            <mxPoint x="-10" y="150" as="targetPoint" />
          </mxGeometry>
        </mxCell>
        <mxCell id="6BHXMDmVlEBjsqxJzx_9-76" value="1" style="edgeLabel;resizable=0;html=1;align=left;verticalAlign=bottom;" connectable="0" vertex="1" parent="6BHXMDmVlEBjsqxJzx_9-75">
          <mxGeometry x="-1" relative="1" as="geometry" />
        </mxCell>
        <mxCell id="6BHXMDmVlEBjsqxJzx_9-77" value="0..*" style="edgeLabel;resizable=0;html=1;align=right;verticalAlign=bottom;" connectable="0" vertex="1" parent="6BHXMDmVlEBjsqxJzx_9-75">
          <mxGeometry x="1" relative="1" as="geometry" />
        </mxCell>
        <mxCell id="6BHXMDmVlEBjsqxJzx_9-78" value="Account" style="swimlane;fontStyle=0;childLayout=stackLayout;horizontal=1;startSize=26;fillColor=none;horizontalStack=0;resizeParent=1;resizeParentMax=0;resizeLast=0;collapsible=1;marginBottom=0;whiteSpace=wrap;html=1;" vertex="1" parent="1">
          <mxGeometry x="-290" y="490" width="180" height="316" as="geometry" />
        </mxCell>
        <mxCell id="6BHXMDmVlEBjsqxJzx_9-79" value="+accNumber: int" style="text;strokeColor=none;fillColor=none;align=left;verticalAlign=top;spacingLeft=4;spacingRight=4;overflow=hidden;rotatable=0;points=[[0,0.5],[1,0.5]];portConstraint=eastwest;whiteSpace=wrap;html=1;" vertex="1" parent="6BHXMDmVlEBjsqxJzx_9-78">
          <mxGeometry y="26" width="180" height="26" as="geometry" />
        </mxCell>
        <mxCell id="6BHXMDmVlEBjsqxJzx_9-80" value="+openingDate: date" style="text;strokeColor=none;fillColor=none;align=left;verticalAlign=top;spacingLeft=4;spacingRight=4;overflow=hidden;rotatable=0;points=[[0,0.5],[1,0.5]];portConstraint=eastwest;whiteSpace=wrap;html=1;" vertex="1" parent="6BHXMDmVlEBjsqxJzx_9-78">
          <mxGeometry y="52" width="180" height="26" as="geometry" />
        </mxCell>
        <mxCell id="6BHXMDmVlEBjsqxJzx_9-81" value="+currency : String" style="text;strokeColor=none;fillColor=none;align=left;verticalAlign=top;spacingLeft=4;spacingRight=4;overflow=hidden;rotatable=0;points=[[0,0.5],[1,0.5]];portConstraint=eastwest;whiteSpace=wrap;html=1;" vertex="1" parent="6BHXMDmVlEBjsqxJzx_9-78">
          <mxGeometry y="78" width="180" height="26" as="geometry" />
        </mxCell>
        <mxCell id="6BHXMDmVlEBjsqxJzx_9-82" value="+type : String" style="text;strokeColor=none;fillColor=none;align=left;verticalAlign=top;spacingLeft=4;spacingRight=4;overflow=hidden;rotatable=0;points=[[0,0.5],[1,0.5]];portConstraint=eastwest;whiteSpace=wrap;html=1;" vertex="1" parent="6BHXMDmVlEBjsqxJzx_9-78">
          <mxGeometry y="104" width="180" height="26" as="geometry" />
        </mxCell>
        <mxCell id="6BHXMDmVlEBjsqxJzx_9-83" value="+IBAN: int" style="text;strokeColor=none;fillColor=none;align=left;verticalAlign=top;spacingLeft=4;spacingRight=4;overflow=hidden;rotatable=0;points=[[0,0.5],[1,0.5]];portConstraint=eastwest;whiteSpace=wrap;html=1;" vertex="1" parent="6BHXMDmVlEBjsqxJzx_9-78">
          <mxGeometry y="130" width="180" height="26" as="geometry" />
        </mxCell>
        <mxCell id="6BHXMDmVlEBjsqxJzx_9-84" value="+ currentBalance: double" style="text;strokeColor=none;fillColor=none;align=left;verticalAlign=top;spacingLeft=4;spacingRight=4;overflow=hidden;rotatable=0;points=[[0,0.5],[1,0.5]];portConstraint=eastwest;whiteSpace=wrap;html=1;" vertex="1" parent="6BHXMDmVlEBjsqxJzx_9-78">
          <mxGeometry y="156" width="180" height="26" as="geometry" />
        </mxCell>
        <mxCell id="6BHXMDmVlEBjsqxJzx_9-85" value="" style="line;strokeWidth=1;fillColor=none;align=left;verticalAlign=middle;spacingTop=-1;spacingLeft=3;spacingRight=3;rotatable=0;labelPosition=right;points=[];portConstraint=eastwest;strokeColor=inherit;" vertex="1" parent="6BHXMDmVlEBjsqxJzx_9-78">
          <mxGeometry y="182" width="180" height="8" as="geometry" />
        </mxCell>
        <mxCell id="6BHXMDmVlEBjsqxJzx_9-86" value="+Account(String, String, double)" style="text;strokeColor=none;fillColor=none;align=left;verticalAlign=top;spacingLeft=4;spacingRight=4;overflow=hidden;rotatable=0;points=[[0,0.5],[1,0.5]];portConstraint=eastwest;whiteSpace=wrap;html=1;" vertex="1" parent="6BHXMDmVlEBjsqxJzx_9-78">
          <mxGeometry y="190" width="180" height="40" as="geometry" />
        </mxCell>
        <mxCell id="6BHXMDmVlEBjsqxJzx_9-87" value="+ viewMyTransactions():void&lt;br&gt;" style="text;strokeColor=none;fillColor=none;align=left;verticalAlign=top;spacingLeft=4;spacingRight=4;overflow=hidden;rotatable=0;points=[[0,0.5],[1,0.5]];portConstraint=eastwest;whiteSpace=wrap;html=1;" vertex="1" parent="6BHXMDmVlEBjsqxJzx_9-78">
          <mxGeometry y="230" width="180" height="30" as="geometry" />
        </mxCell>
        <mxCell id="6BHXMDmVlEBjsqxJzx_9-88" value="+ viewMyTransactions():void&lt;br&gt;" style="text;strokeColor=none;fillColor=none;align=left;verticalAlign=top;spacingLeft=4;spacingRight=4;overflow=hidden;rotatable=0;points=[[0,0.5],[1,0.5]];portConstraint=eastwest;whiteSpace=wrap;html=1;" vertex="1" parent="6BHXMDmVlEBjsqxJzx_9-78">
          <mxGeometry y="260" width="180" height="30" as="geometry" />
        </mxCell>
        <mxCell id="6BHXMDmVlEBjsqxJzx_9-89" value="+ performTransfer(): void??" style="text;strokeColor=none;fillColor=none;align=left;verticalAlign=top;spacingLeft=4;spacingRight=4;overflow=hidden;rotatable=0;points=[[0,0.5],[1,0.5]];portConstraint=eastwest;whiteSpace=wrap;html=1;" vertex="1" parent="6BHXMDmVlEBjsqxJzx_9-78">
          <mxGeometry y="290" width="180" height="26" as="geometry" />
        </mxCell>
        <mxCell id="6BHXMDmVlEBjsqxJzx_9-90" value="Reminder" style="swimlane;fontStyle=1;align=center;verticalAlign=top;childLayout=stackLayout;horizontal=1;startSize=26;horizontalStack=0;resizeParent=1;resizeParentMax=0;resizeLast=0;collapsible=1;marginBottom=0;whiteSpace=wrap;html=1;" vertex="1" parent="1">
          <mxGeometry x="293" y="870" width="160" height="138" as="geometry" />
        </mxCell>
        <mxCell id="6BHXMDmVlEBjsqxJzx_9-91" value="+ Time: date" style="text;strokeColor=none;fillColor=none;align=left;verticalAlign=top;spacingLeft=4;spacingRight=4;overflow=hidden;rotatable=0;points=[[0,0.5],[1,0.5]];portConstraint=eastwest;whiteSpace=wrap;html=1;" vertex="1" parent="6BHXMDmVlEBjsqxJzx_9-90">
          <mxGeometry y="26" width="160" height="26" as="geometry" />
        </mxCell>
        <mxCell id="6BHXMDmVlEBjsqxJzx_9-92" value="" style="line;strokeWidth=1;fillColor=none;align=left;verticalAlign=middle;spacingTop=-1;spacingLeft=3;spacingRight=3;rotatable=0;labelPosition=right;points=[];portConstraint=eastwest;strokeColor=inherit;" vertex="1" parent="6BHXMDmVlEBjsqxJzx_9-90">
          <mxGeometry y="52" width="160" height="8" as="geometry" />
        </mxCell>
        <mxCell id="6BHXMDmVlEBjsqxJzx_9-93" value="+Reminder ( date)" style="text;strokeColor=none;fillColor=none;align=left;verticalAlign=top;spacingLeft=4;spacingRight=4;overflow=hidden;rotatable=0;points=[[0,0.5],[1,0.5]];portConstraint=eastwest;whiteSpace=wrap;html=1;" vertex="1" parent="6BHXMDmVlEBjsqxJzx_9-90">
          <mxGeometry y="60" width="160" height="26" as="geometry" />
        </mxCell>
        <mxCell id="6BHXMDmVlEBjsqxJzx_9-94" value="+sendReminder () : void" style="text;strokeColor=none;fillColor=none;align=left;verticalAlign=top;spacingLeft=4;spacingRight=4;overflow=hidden;rotatable=0;points=[[0,0.5],[1,0.5]];portConstraint=eastwest;whiteSpace=wrap;html=1;" vertex="1" parent="6BHXMDmVlEBjsqxJzx_9-90">
          <mxGeometry y="86" width="160" height="26" as="geometry" />
        </mxCell>
        <mxCell id="6BHXMDmVlEBjsqxJzx_9-95" value="+displayData(): void" style="text;strokeColor=none;fillColor=none;align=left;verticalAlign=top;spacingLeft=4;spacingRight=4;overflow=hidden;rotatable=0;points=[[0,0.5],[1,0.5]];portConstraint=eastwest;whiteSpace=wrap;html=1;" vertex="1" parent="6BHXMDmVlEBjsqxJzx_9-90">
          <mxGeometry y="112" width="160" height="26" as="geometry" />
        </mxCell>
        <mxCell id="6BHXMDmVlEBjsqxJzx_9-96" value="" style="endArrow=block;endSize=10;endFill=0;shadow=0;strokeWidth=1;rounded=0;edgeStyle=elbowEdgeStyle;elbow=vertical;exitX=0.6;exitY=0.023;exitDx=0;exitDy=0;exitPerimeter=0;" edge="1" parent="1" source="6BHXMDmVlEBjsqxJzx_9-90" target="6BHXMDmVlEBjsqxJzx_9-102">
          <mxGeometry width="160" relative="1" as="geometry">
            <mxPoint x="390" y="860" as="sourcePoint" />
            <mxPoint x="376" y="770" as="targetPoint" />
            <Array as="points">
              <mxPoint x="390" y="820" />
              <mxPoint x="194" y="813" />
              <mxPoint x="191" y="813" />
            </Array>
          </mxGeometry>
        </mxCell>
        <mxCell id="6BHXMDmVlEBjsqxJzx_9-97" value="NotificationsHub" style="swimlane;fontStyle=1;align=center;verticalAlign=top;childLayout=stackLayout;horizontal=1;startSize=26;horizontalStack=0;resizeParent=1;resizeParentMax=0;resizeLast=0;collapsible=1;marginBottom=0;whiteSpace=wrap;html=1;" vertex="1" parent="1">
          <mxGeometry x="293" y="630" width="160" height="146" as="geometry" />
        </mxCell>
        <mxCell id="6BHXMDmVlEBjsqxJzx_9-98" value="+ title: String" style="text;strokeColor=none;fillColor=none;align=left;verticalAlign=top;spacingLeft=4;spacingRight=4;overflow=hidden;rotatable=0;points=[[0,0.5],[1,0.5]];portConstraint=eastwest;whiteSpace=wrap;html=1;" vertex="1" parent="6BHXMDmVlEBjsqxJzx_9-97">
          <mxGeometry y="26" width="160" height="26" as="geometry" />
        </mxCell>
        <mxCell id="6BHXMDmVlEBjsqxJzx_9-99" value="+ reason: String" style="text;strokeColor=none;fillColor=none;align=left;verticalAlign=top;spacingLeft=4;spacingRight=4;overflow=hidden;rotatable=0;points=[[0,0.5],[1,0.5]];portConstraint=eastwest;whiteSpace=wrap;html=1;" vertex="1" parent="6BHXMDmVlEBjsqxJzx_9-97">
          <mxGeometry y="52" width="160" height="26" as="geometry" />
        </mxCell>
        <mxCell id="6BHXMDmVlEBjsqxJzx_9-100" value="" style="line;strokeWidth=1;fillColor=none;align=left;verticalAlign=middle;spacingTop=-1;spacingLeft=3;spacingRight=3;rotatable=0;labelPosition=right;points=[];portConstraint=eastwest;strokeColor=inherit;" vertex="1" parent="6BHXMDmVlEBjsqxJzx_9-97">
          <mxGeometry y="78" width="160" height="8" as="geometry" />
        </mxCell>
        <mxCell id="6BHXMDmVlEBjsqxJzx_9-101" value="+NotificationsHub(String, String)" style="text;strokeColor=none;fillColor=none;align=left;verticalAlign=top;spacingLeft=4;spacingRight=4;overflow=hidden;rotatable=0;points=[[0,0.5],[1,0.5]];portConstraint=eastwest;whiteSpace=wrap;html=1;" vertex="1" parent="6BHXMDmVlEBjsqxJzx_9-97">
          <mxGeometry y="86" width="160" height="34" as="geometry" />
        </mxCell>
        <mxCell id="6BHXMDmVlEBjsqxJzx_9-102" value="+sendNotification(): void" style="text;strokeColor=none;fillColor=none;align=left;verticalAlign=top;spacingLeft=4;spacingRight=4;overflow=hidden;rotatable=0;points=[[0,0.5],[1,0.5]];portConstraint=eastwest;whiteSpace=wrap;html=1;" vertex="1" parent="6BHXMDmVlEBjsqxJzx_9-97">
          <mxGeometry y="120" width="160" height="26" as="geometry" />
        </mxCell>
        <mxCell id="6BHXMDmVlEBjsqxJzx_9-103" value="Points" style="swimlane;fontStyle=1;align=center;verticalAlign=top;childLayout=stackLayout;horizontal=1;startSize=26;horizontalStack=0;resizeParent=1;resizeParentMax=0;resizeLast=0;collapsible=1;marginBottom=0;whiteSpace=wrap;html=1;" vertex="1" parent="1">
          <mxGeometry x="-20" y="130" width="180" height="138" as="geometry" />
        </mxCell>
        <mxCell id="6BHXMDmVlEBjsqxJzx_9-104" value="+amount : int" style="text;strokeColor=none;fillColor=none;align=left;verticalAlign=top;spacingLeft=4;spacingRight=4;overflow=hidden;rotatable=0;points=[[0,0.5],[1,0.5]];portConstraint=eastwest;whiteSpace=wrap;html=1;" vertex="1" parent="6BHXMDmVlEBjsqxJzx_9-103">
          <mxGeometry y="26" width="180" height="26" as="geometry" />
        </mxCell>
        <mxCell id="6BHXMDmVlEBjsqxJzx_9-105" value="+expiryDate : Date" style="text;strokeColor=none;fillColor=none;align=left;verticalAlign=top;spacingLeft=4;spacingRight=4;overflow=hidden;rotatable=0;points=[[0,0.5],[1,0.5]];portConstraint=eastwest;whiteSpace=wrap;html=1;" vertex="1" parent="6BHXMDmVlEBjsqxJzx_9-103">
          <mxGeometry y="52" width="180" height="26" as="geometry" />
        </mxCell>
        <mxCell id="6BHXMDmVlEBjsqxJzx_9-106" value="" style="line;strokeWidth=1;fillColor=none;align=left;verticalAlign=middle;spacingTop=-1;spacingLeft=3;spacingRight=3;rotatable=0;labelPosition=right;points=[];portConstraint=eastwest;strokeColor=inherit;" vertex="1" parent="6BHXMDmVlEBjsqxJzx_9-103">
          <mxGeometry y="78" width="180" height="8" as="geometry" />
        </mxCell>
        <mxCell id="6BHXMDmVlEBjsqxJzx_9-107" value="+ Points(int, Date)" style="text;strokeColor=none;fillColor=none;align=left;verticalAlign=top;spacingLeft=4;spacingRight=4;overflow=hidden;rotatable=0;points=[[0,0.5],[1,0.5]];portConstraint=eastwest;whiteSpace=wrap;html=1;" vertex="1" parent="6BHXMDmVlEBjsqxJzx_9-103">
          <mxGeometry y="86" width="180" height="26" as="geometry" />
        </mxCell>
        <mxCell id="6BHXMDmVlEBjsqxJzx_9-108" value="+displayData(): void" style="text;strokeColor=none;fillColor=none;align=left;verticalAlign=top;spacingLeft=4;spacingRight=4;overflow=hidden;rotatable=0;points=[[0,0.5],[1,0.5]];portConstraint=eastwest;whiteSpace=wrap;html=1;" vertex="1" parent="6BHXMDmVlEBjsqxJzx_9-103">
          <mxGeometry y="112" width="180" height="26" as="geometry" />
        </mxCell>
        <mxCell id="6BHXMDmVlEBjsqxJzx_9-109" value="Beneficiary" style="swimlane;fontStyle=1;align=center;verticalAlign=top;childLayout=stackLayout;horizontal=1;startSize=26;horizontalStack=0;resizeParent=1;resizeParentMax=0;resizeLast=0;collapsible=1;marginBottom=0;whiteSpace=wrap;html=1;" vertex="1" parent="1">
          <mxGeometry x="-200" y="830" width="200" height="278" as="geometry" />
        </mxCell>
        <mxCell id="6BHXMDmVlEBjsqxJzx_9-110" value="+ nationalID: int" style="text;strokeColor=none;fillColor=none;align=left;verticalAlign=top;spacingLeft=4;spacingRight=4;overflow=hidden;rotatable=0;points=[[0,0.5],[1,0.5]];portConstraint=eastwest;whiteSpace=wrap;html=1;" vertex="1" parent="6BHXMDmVlEBjsqxJzx_9-109">
          <mxGeometry y="26" width="200" height="26" as="geometry" />
        </mxCell>
        <mxCell id="6BHXMDmVlEBjsqxJzx_9-111" value="+ fullName: String" style="text;strokeColor=none;fillColor=none;align=left;verticalAlign=top;spacingLeft=4;spacingRight=4;overflow=hidden;rotatable=0;points=[[0,0.5],[1,0.5]];portConstraint=eastwest;whiteSpace=wrap;html=1;" vertex="1" parent="6BHXMDmVlEBjsqxJzx_9-109">
          <mxGeometry y="52" width="200" height="26" as="geometry" />
        </mxCell>
        <mxCell id="6BHXMDmVlEBjsqxJzx_9-112" value="+ accountNumber: int" style="text;strokeColor=none;fillColor=none;align=left;verticalAlign=top;spacingLeft=4;spacingRight=4;overflow=hidden;rotatable=0;points=[[0,0.5],[1,0.5]];portConstraint=eastwest;whiteSpace=wrap;html=1;" vertex="1" parent="6BHXMDmVlEBjsqxJzx_9-109">
          <mxGeometry y="78" width="200" height="26" as="geometry" />
        </mxCell>
        <mxCell id="6BHXMDmVlEBjsqxJzx_9-113" value="+ bankName: int" style="text;strokeColor=none;fillColor=none;align=left;verticalAlign=top;spacingLeft=4;spacingRight=4;overflow=hidden;rotatable=0;points=[[0,0.5],[1,0.5]];portConstraint=eastwest;whiteSpace=wrap;html=1;" vertex="1" parent="6BHXMDmVlEBjsqxJzx_9-109">
          <mxGeometry y="104" width="200" height="26" as="geometry" />
        </mxCell>
        <mxCell id="6BHXMDmVlEBjsqxJzx_9-114" value="" style="line;strokeWidth=1;fillColor=none;align=left;verticalAlign=middle;spacingTop=-1;spacingLeft=3;spacingRight=3;rotatable=0;labelPosition=right;points=[];portConstraint=eastwest;strokeColor=inherit;" vertex="1" parent="6BHXMDmVlEBjsqxJzx_9-109">
          <mxGeometry y="130" width="200" height="8" as="geometry" />
        </mxCell>
        <mxCell id="6BHXMDmVlEBjsqxJzx_9-115" value="+ Beneficiary(String, int, int, int, int)" style="text;strokeColor=none;fillColor=none;align=left;verticalAlign=top;spacingLeft=4;spacingRight=4;overflow=hidden;rotatable=0;points=[[0,0.5],[1,0.5]];portConstraint=eastwest;whiteSpace=wrap;html=1;" vertex="1" parent="6BHXMDmVlEBjsqxJzx_9-109">
          <mxGeometry y="138" width="200" height="36" as="geometry" />
        </mxCell>
        <mxCell id="6BHXMDmVlEBjsqxJzx_9-116" value="+ nationalID: int" style="text;strokeColor=none;fillColor=none;align=left;verticalAlign=top;spacingLeft=4;spacingRight=4;overflow=hidden;rotatable=0;points=[[0,0.5],[1,0.5]];portConstraint=eastwest;whiteSpace=wrap;html=1;" vertex="1" parent="6BHXMDmVlEBjsqxJzx_9-109">
          <mxGeometry y="174" width="200" height="26" as="geometry" />
        </mxCell>
        <mxCell id="6BHXMDmVlEBjsqxJzx_9-117" value="+ IBAN: int" style="text;strokeColor=none;fillColor=none;align=left;verticalAlign=top;spacingLeft=4;spacingRight=4;overflow=hidden;rotatable=0;points=[[0,0.5],[1,0.5]];portConstraint=eastwest;whiteSpace=wrap;html=1;" vertex="1" parent="6BHXMDmVlEBjsqxJzx_9-109">
          <mxGeometry y="200" width="200" height="26" as="geometry" />
        </mxCell>
        <mxCell id="6BHXMDmVlEBjsqxJzx_9-118" value="+displayData(): void" style="text;strokeColor=none;fillColor=none;align=left;verticalAlign=top;spacingLeft=4;spacingRight=4;overflow=hidden;rotatable=0;points=[[0,0.5],[1,0.5]];portConstraint=eastwest;whiteSpace=wrap;html=1;" vertex="1" parent="6BHXMDmVlEBjsqxJzx_9-109">
          <mxGeometry y="226" width="200" height="26" as="geometry" />
        </mxCell>
        <mxCell id="6BHXMDmVlEBjsqxJzx_9-119" value="+ makePayment(double): void" style="text;strokeColor=none;fillColor=none;align=left;verticalAlign=top;spacingLeft=4;spacingRight=4;overflow=hidden;rotatable=0;points=[[0,0.5],[1,0.5]];portConstraint=eastwest;whiteSpace=wrap;html=1;" vertex="1" parent="6BHXMDmVlEBjsqxJzx_9-109">
          <mxGeometry y="252" width="200" height="26" as="geometry" />
        </mxCell>
        <mxCell id="6BHXMDmVlEBjsqxJzx_9-120" value="Reports" style="swimlane;fontStyle=1;align=center;verticalAlign=top;childLayout=stackLayout;horizontal=1;startSize=26;horizontalStack=0;resizeParent=1;resizeParentMax=0;resizeLast=0;collapsible=1;marginBottom=0;whiteSpace=wrap;html=1;" vertex="1" parent="1">
          <mxGeometry x="310" y="360" width="180" height="190" as="geometry">
            <mxRectangle x="260" y="360" width="90" height="30" as="alternateBounds" />
          </mxGeometry>
        </mxCell>
        <mxCell id="6BHXMDmVlEBjsqxJzx_9-121" value="+ type: String" style="text;strokeColor=none;fillColor=none;align=left;verticalAlign=top;spacingLeft=4;spacingRight=4;overflow=hidden;rotatable=0;points=[[0,0.5],[1,0.5]];portConstraint=eastwest;whiteSpace=wrap;html=1;" vertex="1" parent="6BHXMDmVlEBjsqxJzx_9-120">
          <mxGeometry y="26" width="180" height="26" as="geometry" />
        </mxCell>
        <mxCell id="6BHXMDmVlEBjsqxJzx_9-122" value="+ dateIssued: date" style="text;strokeColor=none;fillColor=none;align=left;verticalAlign=top;spacingLeft=4;spacingRight=4;overflow=hidden;rotatable=0;points=[[0,0.5],[1,0.5]];portConstraint=eastwest;whiteSpace=wrap;html=1;" vertex="1" parent="6BHXMDmVlEBjsqxJzx_9-120">
          <mxGeometry y="52" width="180" height="26" as="geometry" />
        </mxCell>
        <mxCell id="6BHXMDmVlEBjsqxJzx_9-123" value="+ reportNumber: int" style="text;strokeColor=none;fillColor=none;align=left;verticalAlign=top;spacingLeft=4;spacingRight=4;overflow=hidden;rotatable=0;points=[[0,0.5],[1,0.5]];portConstraint=eastwest;whiteSpace=wrap;html=1;" vertex="1" parent="6BHXMDmVlEBjsqxJzx_9-120">
          <mxGeometry y="78" width="180" height="26" as="geometry" />
        </mxCell>
        <mxCell id="6BHXMDmVlEBjsqxJzx_9-124" value="" style="line;strokeWidth=1;fillColor=none;align=left;verticalAlign=middle;spacingTop=-1;spacingLeft=3;spacingRight=3;rotatable=0;labelPosition=right;points=[];portConstraint=eastwest;strokeColor=inherit;" vertex="1" parent="6BHXMDmVlEBjsqxJzx_9-120">
          <mxGeometry y="104" width="180" height="8" as="geometry" />
        </mxCell>
        <mxCell id="6BHXMDmVlEBjsqxJzx_9-125" value="+ Reports(String, date): void" style="text;strokeColor=none;fillColor=none;align=left;verticalAlign=top;spacingLeft=4;spacingRight=4;overflow=hidden;rotatable=0;points=[[0,0.5],[1,0.5]];portConstraint=eastwest;whiteSpace=wrap;html=1;" vertex="1" parent="6BHXMDmVlEBjsqxJzx_9-120">
          <mxGeometry y="112" width="180" height="26" as="geometry" />
        </mxCell>
        <mxCell id="6BHXMDmVlEBjsqxJzx_9-126" value="+displayData(): void" style="text;strokeColor=none;fillColor=none;align=left;verticalAlign=top;spacingLeft=4;spacingRight=4;overflow=hidden;rotatable=0;points=[[0,0.5],[1,0.5]];portConstraint=eastwest;whiteSpace=wrap;html=1;" vertex="1" parent="6BHXMDmVlEBjsqxJzx_9-120">
          <mxGeometry y="138" width="180" height="26" as="geometry" />
        </mxCell>
        <mxCell id="6BHXMDmVlEBjsqxJzx_9-127" value="+ reportCreditCardIssue(): void" style="text;strokeColor=none;fillColor=none;align=left;verticalAlign=top;spacingLeft=4;spacingRight=4;overflow=hidden;rotatable=0;points=[[0,0.5],[1,0.5]];portConstraint=eastwest;whiteSpace=wrap;html=1;" vertex="1" parent="6BHXMDmVlEBjsqxJzx_9-120">
          <mxGeometry y="164" width="180" height="26" as="geometry" />
        </mxCell>
        <mxCell id="6BHXMDmVlEBjsqxJzx_9-128" value="" style="endArrow=none;html=1;rounded=0;exitX=1;exitY=-0.055;exitDx=0;exitDy=0;exitPerimeter=0;entryX=-0.002;entryY=0.816;entryDx=0;entryDy=0;entryPerimeter=0;" edge="1" parent="1" source="6BHXMDmVlEBjsqxJzx_9-70" target="6BHXMDmVlEBjsqxJzx_9-3">
          <mxGeometry relative="1" as="geometry">
            <mxPoint x="-210" y="405.40999999999997" as="sourcePoint" />
            <mxPoint x="-50" y="405.40999999999997" as="targetPoint" />
          </mxGeometry>
        </mxCell>
        <mxCell id="6BHXMDmVlEBjsqxJzx_9-129" value="0..*" style="resizable=0;html=1;whiteSpace=wrap;align=left;verticalAlign=bottom;" connectable="0" vertex="1" parent="6BHXMDmVlEBjsqxJzx_9-128">
          <mxGeometry x="-1" relative="1" as="geometry" />
        </mxCell>
        <mxCell id="6BHXMDmVlEBjsqxJzx_9-130" value="1" style="resizable=0;html=1;whiteSpace=wrap;align=right;verticalAlign=bottom;" connectable="0" vertex="1" parent="6BHXMDmVlEBjsqxJzx_9-128">
          <mxGeometry x="1" relative="1" as="geometry" />
        </mxCell>
        <mxCell id="6BHXMDmVlEBjsqxJzx_9-131" value="" style="endArrow=diamondThin;endFill=1;endSize=24;html=1;rounded=0;exitX=0.5;exitY=0;exitDx=0;exitDy=0;dashed=1;entryX=0;entryY=0.5;entryDx=0;entryDy=0;" edge="1" parent="1" source="6BHXMDmVlEBjsqxJzx_9-109" target="6BHXMDmVlEBjsqxJzx_9-18">
          <mxGeometry width="160" relative="1" as="geometry">
            <mxPoint x="130" y="600" as="sourcePoint" />
            <mxPoint x="70" y="710" as="targetPoint" />
            <Array as="points" />
          </mxGeometry>
        </mxCell>
        <mxCell id="6BHXMDmVlEBjsqxJzx_9-132" value="" style="endArrow=none;html=1;rounded=0;exitX=1;exitY=0.5;exitDx=0;exitDy=0;entryX=-0.004;entryY=0.091;entryDx=0;entryDy=0;entryPerimeter=0;" edge="1" parent="1" source="6BHXMDmVlEBjsqxJzx_9-122" target="6BHXMDmVlEBjsqxJzx_9-42">
          <mxGeometry relative="1" as="geometry">
            <mxPoint x="270" y="472" as="sourcePoint" />
            <mxPoint x="500" y="476.40999999999997" as="targetPoint" />
          </mxGeometry>
        </mxCell>
        <mxCell id="6BHXMDmVlEBjsqxJzx_9-133" value="0..*" style="resizable=0;html=1;whiteSpace=wrap;align=left;verticalAlign=bottom;" connectable="0" vertex="1" parent="6BHXMDmVlEBjsqxJzx_9-132">
          <mxGeometry x="-1" relative="1" as="geometry" />
        </mxCell>
        <mxCell id="6BHXMDmVlEBjsqxJzx_9-134" value="0..*" style="resizable=0;html=1;whiteSpace=wrap;align=right;verticalAlign=bottom;" connectable="0" vertex="1" parent="6BHXMDmVlEBjsqxJzx_9-132">
          <mxGeometry x="1" relative="1" as="geometry" />
        </mxCell>
        <mxCell id="6BHXMDmVlEBjsqxJzx_9-135" value="" style="endArrow=none;html=1;rounded=0;exitX=1;exitY=-0.154;exitDx=0;exitDy=0;entryX=0.25;entryY=0;entryDx=0;entryDy=0;exitPerimeter=0;" edge="1" parent="1" source="6BHXMDmVlEBjsqxJzx_9-7" target="6BHXMDmVlEBjsqxJzx_9-97">
          <mxGeometry relative="1" as="geometry">
            <mxPoint x="-68" y="517" as="sourcePoint" />
            <mxPoint x="-40" y="461" as="targetPoint" />
          </mxGeometry>
        </mxCell>
        <mxCell id="6BHXMDmVlEBjsqxJzx_9-136" value="1..*" style="resizable=0;html=1;whiteSpace=wrap;align=left;verticalAlign=bottom;" connectable="0" vertex="1" parent="6BHXMDmVlEBjsqxJzx_9-135">
          <mxGeometry x="-1" relative="1" as="geometry" />
        </mxCell>
        <mxCell id="6BHXMDmVlEBjsqxJzx_9-137" value="0..*" style="resizable=0;html=1;whiteSpace=wrap;align=right;verticalAlign=bottom;" connectable="0" vertex="1" parent="6BHXMDmVlEBjsqxJzx_9-135">
          <mxGeometry x="1" relative="1" as="geometry" />
        </mxCell>
        <mxCell id="6BHXMDmVlEBjsqxJzx_9-138" value="" style="endArrow=none;html=1;rounded=0;exitX=1;exitY=0.5;exitDx=0;exitDy=0;entryX=0.137;entryY=-0.037;entryDx=0;entryDy=0;entryPerimeter=0;" edge="1" parent="1" source="6BHXMDmVlEBjsqxJzx_9-15" target="6BHXMDmVlEBjsqxJzx_9-90">
          <mxGeometry relative="1" as="geometry">
            <mxPoint x="200" y="670" as="sourcePoint" />
            <mxPoint x="260" y="860" as="targetPoint" />
            <Array as="points" />
          </mxGeometry>
        </mxCell>
        <mxCell id="6BHXMDmVlEBjsqxJzx_9-139" value="1" style="resizable=0;html=1;whiteSpace=wrap;align=left;verticalAlign=bottom;" connectable="0" vertex="1" parent="6BHXMDmVlEBjsqxJzx_9-138">
          <mxGeometry x="-1" relative="1" as="geometry" />
        </mxCell>
        <mxCell id="6BHXMDmVlEBjsqxJzx_9-140" value="1..*" style="resizable=0;html=1;whiteSpace=wrap;align=right;verticalAlign=bottom;" connectable="0" vertex="1" parent="6BHXMDmVlEBjsqxJzx_9-138">
          <mxGeometry x="1" relative="1" as="geometry" />
        </mxCell>
        <mxCell id="6BHXMDmVlEBjsqxJzx_9-141" value="" style="endArrow=diamondThin;endFill=1;endSize=24;html=1;rounded=0;exitX=1;exitY=0.5;exitDx=0;exitDy=0;dashed=1;" edge="1" parent="1" source="6BHXMDmVlEBjsqxJzx_9-81">
          <mxGeometry width="160" relative="1" as="geometry">
            <mxPoint x="-47" y="580.5" as="sourcePoint" />
            <mxPoint x="-60" y="530" as="targetPoint" />
          </mxGeometry>
        </mxCell>
        <mxCell id="6BHXMDmVlEBjsqxJzx_9-142" value="" style="endArrow=none;html=1;rounded=0;exitX=1;exitY=0.5;exitDx=0;exitDy=0;entryX=0.009;entryY=0.108;entryDx=0;entryDy=0;entryPerimeter=0;" edge="1" parent="1" source="6BHXMDmVlEBjsqxJzx_9-121" target="6BHXMDmVlEBjsqxJzx_9-26">
          <mxGeometry relative="1" as="geometry">
            <mxPoint x="430" y="435" as="sourcePoint" />
            <mxPoint x="663.7039999999997" y="386.04399999999987" as="targetPoint" />
          </mxGeometry>
        </mxCell>
        <mxCell id="6BHXMDmVlEBjsqxJzx_9-143" value="0..*" style="resizable=0;html=1;whiteSpace=wrap;align=left;verticalAlign=bottom;" connectable="0" vertex="1" parent="6BHXMDmVlEBjsqxJzx_9-142">
          <mxGeometry x="-1" relative="1" as="geometry" />
        </mxCell>
        <mxCell id="6BHXMDmVlEBjsqxJzx_9-144" value="0..*" style="resizable=0;html=1;whiteSpace=wrap;align=right;verticalAlign=bottom;" connectable="0" vertex="1" parent="6BHXMDmVlEBjsqxJzx_9-142">
          <mxGeometry x="1" relative="1" as="geometry" />
        </mxCell>
        <mxCell id="6BHXMDmVlEBjsqxJzx_9-145" value="Certificate" style="swimlane;fontStyle=0;childLayout=stackLayout;horizontal=1;startSize=26;fillColor=none;horizontalStack=0;resizeParent=1;resizeParentMax=0;resizeLast=0;collapsible=1;marginBottom=0;whiteSpace=wrap;html=1;" vertex="1" parent="1">
          <mxGeometry x="-520" y="466" width="180" height="190" as="geometry" />
        </mxCell>
        <mxCell id="6BHXMDmVlEBjsqxJzx_9-146" value="+certifcadeID: int" style="text;strokeColor=none;fillColor=none;align=left;verticalAlign=top;spacingLeft=4;spacingRight=4;overflow=hidden;rotatable=0;points=[[0,0.5],[1,0.5]];portConstraint=eastwest;whiteSpace=wrap;html=1;" vertex="1" parent="6BHXMDmVlEBjsqxJzx_9-145">
          <mxGeometry y="26" width="180" height="26" as="geometry" />
        </mxCell>
        <mxCell id="6BHXMDmVlEBjsqxJzx_9-147" value="+maturityDate date" style="text;strokeColor=none;fillColor=none;align=left;verticalAlign=top;spacingLeft=4;spacingRight=4;overflow=hidden;rotatable=0;points=[[0,0.5],[1,0.5]];portConstraint=eastwest;whiteSpace=wrap;html=1;" vertex="1" parent="6BHXMDmVlEBjsqxJzx_9-145">
          <mxGeometry y="52" width="180" height="26" as="geometry" />
        </mxCell>
        <mxCell id="6BHXMDmVlEBjsqxJzx_9-148" value="+interest: int" style="text;strokeColor=none;fillColor=none;align=left;verticalAlign=top;spacingLeft=4;spacingRight=4;overflow=hidden;rotatable=0;points=[[0,0.5],[1,0.5]];portConstraint=eastwest;whiteSpace=wrap;html=1;" vertex="1" parent="6BHXMDmVlEBjsqxJzx_9-145">
          <mxGeometry y="78" width="180" height="26" as="geometry" />
        </mxCell>
        <mxCell id="6BHXMDmVlEBjsqxJzx_9-149" value="+duration: date" style="text;strokeColor=none;fillColor=none;align=left;verticalAlign=top;spacingLeft=4;spacingRight=4;overflow=hidden;rotatable=0;points=[[0,0.5],[1,0.5]];portConstraint=eastwest;whiteSpace=wrap;html=1;" vertex="1" parent="6BHXMDmVlEBjsqxJzx_9-145">
          <mxGeometry y="104" width="180" height="26" as="geometry" />
        </mxCell>
        <mxCell id="6BHXMDmVlEBjsqxJzx_9-150" value="" style="line;strokeWidth=1;fillColor=none;align=left;verticalAlign=middle;spacingTop=-1;spacingLeft=3;spacingRight=3;rotatable=0;labelPosition=right;points=[];portConstraint=eastwest;strokeColor=inherit;" vertex="1" parent="6BHXMDmVlEBjsqxJzx_9-145">
          <mxGeometry y="130" width="180" height="8" as="geometry" />
        </mxCell>
        <mxCell id="6BHXMDmVlEBjsqxJzx_9-151" value="+Certificate (int, date, date)" style="text;strokeColor=none;fillColor=none;align=left;verticalAlign=top;spacingLeft=4;spacingRight=4;overflow=hidden;rotatable=0;points=[[0,0.5],[1,0.5]];portConstraint=eastwest;whiteSpace=wrap;html=1;" vertex="1" parent="6BHXMDmVlEBjsqxJzx_9-145">
          <mxGeometry y="138" width="180" height="26" as="geometry" />
        </mxCell>
        <mxCell id="6BHXMDmVlEBjsqxJzx_9-152" value="+displayDetails():void" style="text;strokeColor=none;fillColor=none;align=left;verticalAlign=top;spacingLeft=4;spacingRight=4;overflow=hidden;rotatable=0;points=[[0,0.5],[1,0.5]];portConstraint=eastwest;whiteSpace=wrap;html=1;" vertex="1" parent="6BHXMDmVlEBjsqxJzx_9-145">
          <mxGeometry y="164" width="180" height="26" as="geometry" />
        </mxCell>
        <mxCell id="6BHXMDmVlEBjsqxJzx_9-153" value="" style="endArrow=none;html=1;edgeStyle=orthogonalEdgeStyle;rounded=0;exitX=1;exitY=0.5;exitDx=0;exitDy=0;entryX=0.054;entryY=-0.003;entryDx=0;entryDy=0;curved=1;entryPerimeter=0;" edge="1" parent="1" source="6BHXMDmVlEBjsqxJzx_9-158" target="6BHXMDmVlEBjsqxJzx_9-2">
          <mxGeometry relative="1" as="geometry">
            <mxPoint x="-949" y="13" as="sourcePoint" />
            <mxPoint x="-950" y="-287" as="targetPoint" />
          </mxGeometry>
        </mxCell>
        <mxCell id="6BHXMDmVlEBjsqxJzx_9-154" value="1" style="edgeLabel;resizable=0;html=1;align=left;verticalAlign=bottom;" connectable="0" vertex="1" parent="6BHXMDmVlEBjsqxJzx_9-153">
          <mxGeometry x="-1" relative="1" as="geometry" />
        </mxCell>
        <mxCell id="6BHXMDmVlEBjsqxJzx_9-155" value="0...*" style="edgeLabel;resizable=0;html=1;align=right;verticalAlign=bottom;" connectable="0" vertex="1" parent="6BHXMDmVlEBjsqxJzx_9-153">
          <mxGeometry x="1" relative="1" as="geometry" />
        </mxCell>
        <mxCell id="6BHXMDmVlEBjsqxJzx_9-156" value="Transaction" style="swimlane;fontStyle=1;align=center;verticalAlign=top;childLayout=stackLayout;horizontal=1;startSize=26;horizontalStack=0;resizeParent=1;resizeParentMax=0;resizeLast=0;collapsible=1;marginBottom=0;whiteSpace=wrap;html=1;" vertex="1" parent="1">
          <mxGeometry x="-1130" y="-109" width="160" height="140" as="geometry" />
        </mxCell>
        <mxCell id="6BHXMDmVlEBjsqxJzx_9-157" value="+ transactionID: int" style="text;strokeColor=none;fillColor=none;align=left;verticalAlign=top;spacingLeft=4;spacingRight=4;overflow=hidden;rotatable=0;points=[[0,0.5],[1,0.5]];portConstraint=eastwest;whiteSpace=wrap;html=1;" vertex="1" parent="6BHXMDmVlEBjsqxJzx_9-156">
          <mxGeometry y="26" width="160" height="26" as="geometry" />
        </mxCell>
        <mxCell id="6BHXMDmVlEBjsqxJzx_9-158" value="+ amount : double" style="text;strokeColor=none;fillColor=none;align=left;verticalAlign=top;spacingLeft=4;spacingRight=4;overflow=hidden;rotatable=0;points=[[0,0.5],[1,0.5]];portConstraint=eastwest;whiteSpace=wrap;html=1;" vertex="1" parent="6BHXMDmVlEBjsqxJzx_9-156">
          <mxGeometry y="52" width="160" height="26" as="geometry" />
        </mxCell>
        <mxCell id="6BHXMDmVlEBjsqxJzx_9-159" value="" style="line;strokeWidth=1;fillColor=none;align=left;verticalAlign=middle;spacingTop=-1;spacingLeft=3;spacingRight=3;rotatable=0;labelPosition=right;points=[];portConstraint=eastwest;strokeColor=inherit;" vertex="1" parent="6BHXMDmVlEBjsqxJzx_9-156">
          <mxGeometry y="78" width="160" height="8" as="geometry" />
        </mxCell>
        <mxCell id="6BHXMDmVlEBjsqxJzx_9-160" value="+ Transaction(double)" style="text;strokeColor=none;fillColor=none;align=left;verticalAlign=top;spacingLeft=4;spacingRight=4;overflow=hidden;rotatable=0;points=[[0,0.5],[1,0.5]];portConstraint=eastwest;whiteSpace=wrap;html=1;" vertex="1" parent="6BHXMDmVlEBjsqxJzx_9-156">
          <mxGeometry y="86" width="160" height="26" as="geometry" />
        </mxCell>
        <mxCell id="6BHXMDmVlEBjsqxJzx_9-161" value="+displayData(): void" style="text;strokeColor=none;fillColor=none;align=left;verticalAlign=top;spacingLeft=4;spacingRight=4;overflow=hidden;rotatable=0;points=[[0,0.5],[1,0.5]];portConstraint=eastwest;whiteSpace=wrap;html=1;" vertex="1" parent="6BHXMDmVlEBjsqxJzx_9-156">
          <mxGeometry y="112" width="160" height="28" as="geometry" />
        </mxCell>
        <mxCell id="6BHXMDmVlEBjsqxJzx_9-162" value="Transfer" style="swimlane;fontStyle=1;align=center;verticalAlign=top;childLayout=stackLayout;horizontal=1;startSize=26;horizontalStack=0;resizeParent=1;resizeParentMax=0;resizeLast=0;collapsible=1;marginBottom=0;whiteSpace=wrap;html=1;" vertex="1" parent="1">
          <mxGeometry x="-1310" y="90" width="180" height="242" as="geometry" />
        </mxCell>
        <mxCell id="6BHXMDmVlEBjsqxJzx_9-163" value="+ transferID : int" style="text;strokeColor=none;fillColor=none;align=left;verticalAlign=top;spacingLeft=4;spacingRight=4;overflow=hidden;rotatable=0;points=[[0,0.5],[1,0.5]];portConstraint=eastwest;whiteSpace=wrap;html=1;" vertex="1" parent="6BHXMDmVlEBjsqxJzx_9-162">
          <mxGeometry y="26" width="180" height="26" as="geometry" />
        </mxCell>
        <mxCell id="6BHXMDmVlEBjsqxJzx_9-164" value="+ transferTime : date" style="text;strokeColor=none;fillColor=none;align=left;verticalAlign=top;spacingLeft=4;spacingRight=4;overflow=hidden;rotatable=0;points=[[0,0.5],[1,0.5]];portConstraint=eastwest;whiteSpace=wrap;html=1;" vertex="1" parent="6BHXMDmVlEBjsqxJzx_9-162">
          <mxGeometry y="52" width="180" height="26" as="geometry" />
        </mxCell>
        <mxCell id="6BHXMDmVlEBjsqxJzx_9-165" value="+ timeFrame : date" style="text;strokeColor=none;fillColor=none;align=left;verticalAlign=top;spacingLeft=4;spacingRight=4;overflow=hidden;rotatable=0;points=[[0,0.5],[1,0.5]];portConstraint=eastwest;whiteSpace=wrap;html=1;" vertex="1" parent="6BHXMDmVlEBjsqxJzx_9-162">
          <mxGeometry y="78" width="180" height="26" as="geometry" />
        </mxCell>
        <mxCell id="6BHXMDmVlEBjsqxJzx_9-166" value="+ reason : string" style="text;strokeColor=none;fillColor=none;align=left;verticalAlign=top;spacingLeft=4;spacingRight=4;overflow=hidden;rotatable=0;points=[[0,0.5],[1,0.5]];portConstraint=eastwest;whiteSpace=wrap;html=1;" vertex="1" parent="6BHXMDmVlEBjsqxJzx_9-162">
          <mxGeometry y="104" width="180" height="26" as="geometry" />
        </mxCell>
        <mxCell id="6BHXMDmVlEBjsqxJzx_9-167" value="+ receiver: receiver" style="text;strokeColor=none;fillColor=none;align=left;verticalAlign=top;spacingLeft=4;spacingRight=4;overflow=hidden;rotatable=0;points=[[0,0.5],[1,0.5]];portConstraint=eastwest;whiteSpace=wrap;html=1;" vertex="1" parent="6BHXMDmVlEBjsqxJzx_9-162">
          <mxGeometry y="130" width="180" height="26" as="geometry" />
        </mxCell>
        <mxCell id="6BHXMDmVlEBjsqxJzx_9-168" value="" style="line;strokeWidth=1;fillColor=none;align=left;verticalAlign=middle;spacingTop=-1;spacingLeft=3;spacingRight=3;rotatable=0;labelPosition=right;points=[];portConstraint=eastwest;strokeColor=inherit;" vertex="1" parent="6BHXMDmVlEBjsqxJzx_9-162">
          <mxGeometry y="156" width="180" height="8" as="geometry" />
        </mxCell>
        <mxCell id="6BHXMDmVlEBjsqxJzx_9-169" style="edgeStyle=orthogonalEdgeStyle;rounded=0;orthogonalLoop=1;jettySize=auto;html=1;exitX=1;exitY=0.5;exitDx=0;exitDy=0;" edge="1" parent="6BHXMDmVlEBjsqxJzx_9-162" source="6BHXMDmVlEBjsqxJzx_9-164" target="6BHXMDmVlEBjsqxJzx_9-164">
          <mxGeometry relative="1" as="geometry" />
        </mxCell>
        <mxCell id="6BHXMDmVlEBjsqxJzx_9-170" value="+ Transfer(double, string)" style="text;strokeColor=none;fillColor=none;align=left;verticalAlign=top;spacingLeft=4;spacingRight=4;overflow=hidden;rotatable=0;points=[[0,0.5],[1,0.5]];portConstraint=eastwest;whiteSpace=wrap;html=1;" vertex="1" parent="6BHXMDmVlEBjsqxJzx_9-162">
          <mxGeometry y="164" width="180" height="26" as="geometry" />
        </mxCell>
        <mxCell id="6BHXMDmVlEBjsqxJzx_9-171" value="+ makePayment(double): void" style="text;strokeColor=none;fillColor=none;align=left;verticalAlign=top;spacingLeft=4;spacingRight=4;overflow=hidden;rotatable=0;points=[[0,0.5],[1,0.5]];portConstraint=eastwest;whiteSpace=wrap;html=1;" vertex="1" parent="6BHXMDmVlEBjsqxJzx_9-162">
          <mxGeometry y="190" width="180" height="26" as="geometry" />
        </mxCell>
        <mxCell id="6BHXMDmVlEBjsqxJzx_9-172" value="+execute(): void" style="text;strokeColor=none;fillColor=none;align=left;verticalAlign=top;spacingLeft=4;spacingRight=4;overflow=hidden;rotatable=0;points=[[0,0.5],[1,0.5]];portConstraint=eastwest;whiteSpace=wrap;html=1;" vertex="1" parent="6BHXMDmVlEBjsqxJzx_9-162">
          <mxGeometry y="216" width="180" height="26" as="geometry" />
        </mxCell>
        <mxCell id="6BHXMDmVlEBjsqxJzx_9-173" value="Internal" style="swimlane;fontStyle=1;align=center;verticalAlign=top;childLayout=stackLayout;horizontal=1;startSize=26;horizontalStack=0;resizeParent=1;resizeParentMax=0;resizeLast=0;collapsible=1;marginBottom=0;whiteSpace=wrap;html=1;" vertex="1" parent="1">
          <mxGeometry x="-1585" y="464" width="190" height="86" as="geometry" />
        </mxCell>
        <mxCell id="6BHXMDmVlEBjsqxJzx_9-174" value="" style="line;strokeWidth=1;fillColor=none;align=left;verticalAlign=middle;spacingTop=-1;spacingLeft=3;spacingRight=3;rotatable=0;labelPosition=right;points=[];portConstraint=eastwest;strokeColor=inherit;" vertex="1" parent="6BHXMDmVlEBjsqxJzx_9-173">
          <mxGeometry y="26" width="190" height="8" as="geometry" />
        </mxCell>
        <mxCell id="6BHXMDmVlEBjsqxJzx_9-175" value="+ Internal()" style="text;strokeColor=none;fillColor=none;align=left;verticalAlign=top;spacingLeft=4;spacingRight=4;overflow=hidden;rotatable=0;points=[[0,0.5],[1,0.5]];portConstraint=eastwest;whiteSpace=wrap;html=1;" vertex="1" parent="6BHXMDmVlEBjsqxJzx_9-173">
          <mxGeometry y="34" width="190" height="26" as="geometry" />
        </mxCell>
        <mxCell id="6BHXMDmVlEBjsqxJzx_9-176" value="+ makePayment(double): void" style="text;strokeColor=none;fillColor=none;align=left;verticalAlign=top;spacingLeft=4;spacingRight=4;overflow=hidden;rotatable=0;points=[[0,0.5],[1,0.5]];portConstraint=eastwest;whiteSpace=wrap;html=1;" vertex="1" parent="6BHXMDmVlEBjsqxJzx_9-173">
          <mxGeometry y="60" width="190" height="26" as="geometry" />
        </mxCell>
        <mxCell id="6BHXMDmVlEBjsqxJzx_9-177" value="International" style="swimlane;fontStyle=1;align=center;verticalAlign=top;childLayout=stackLayout;horizontal=1;startSize=26;horizontalStack=0;resizeParent=1;resizeParentMax=0;resizeLast=0;collapsible=1;marginBottom=0;whiteSpace=wrap;html=1;" vertex="1" parent="1">
          <mxGeometry x="-1160" y="464" width="210" height="166" as="geometry" />
        </mxCell>
        <mxCell id="6BHXMDmVlEBjsqxJzx_9-178" value="+ IBAN: String" style="text;strokeColor=none;fillColor=none;align=left;verticalAlign=top;spacingLeft=4;spacingRight=4;overflow=hidden;rotatable=0;points=[[0,0.5],[1,0.5]];portConstraint=eastwest;whiteSpace=wrap;html=1;" vertex="1" parent="6BHXMDmVlEBjsqxJzx_9-177">
          <mxGeometry y="26" width="210" height="26" as="geometry" />
        </mxCell>
        <mxCell id="6BHXMDmVlEBjsqxJzx_9-179" value="+ destinationBankName: String&amp;nbsp;" style="text;strokeColor=none;fillColor=none;align=left;verticalAlign=top;spacingLeft=4;spacingRight=4;overflow=hidden;rotatable=0;points=[[0,0.5],[1,0.5]];portConstraint=eastwest;whiteSpace=wrap;html=1;" vertex="1" parent="6BHXMDmVlEBjsqxJzx_9-177">
          <mxGeometry y="52" width="210" height="28" as="geometry" />
        </mxCell>
        <mxCell id="6BHXMDmVlEBjsqxJzx_9-180" value="+ destinationCountry: String" style="text;strokeColor=none;fillColor=none;align=left;verticalAlign=top;spacingLeft=4;spacingRight=4;overflow=hidden;rotatable=0;points=[[0,0.5],[1,0.5]];portConstraint=eastwest;whiteSpace=wrap;html=1;" vertex="1" parent="6BHXMDmVlEBjsqxJzx_9-177">
          <mxGeometry y="80" width="210" height="26" as="geometry" />
        </mxCell>
        <mxCell id="6BHXMDmVlEBjsqxJzx_9-181" value="" style="line;strokeWidth=1;fillColor=none;align=left;verticalAlign=middle;spacingTop=-1;spacingLeft=3;spacingRight=3;rotatable=0;labelPosition=right;points=[];portConstraint=eastwest;strokeColor=inherit;" vertex="1" parent="6BHXMDmVlEBjsqxJzx_9-177">
          <mxGeometry y="106" width="210" height="8" as="geometry" />
        </mxCell>
        <mxCell id="6BHXMDmVlEBjsqxJzx_9-182" value="+ International(String, String, String)" style="text;strokeColor=none;fillColor=none;align=left;verticalAlign=top;spacingLeft=4;spacingRight=4;overflow=hidden;rotatable=0;points=[[0,0.5],[1,0.5]];portConstraint=eastwest;whiteSpace=wrap;html=1;" vertex="1" parent="6BHXMDmVlEBjsqxJzx_9-177">
          <mxGeometry y="114" width="210" height="26" as="geometry" />
        </mxCell>
        <mxCell id="6BHXMDmVlEBjsqxJzx_9-183" value="+ makePayment(double): void" style="text;strokeColor=none;fillColor=none;align=left;verticalAlign=top;spacingLeft=4;spacingRight=4;overflow=hidden;rotatable=0;points=[[0,0.5],[1,0.5]];portConstraint=eastwest;whiteSpace=wrap;html=1;" vertex="1" parent="6BHXMDmVlEBjsqxJzx_9-177">
          <mxGeometry y="140" width="210" height="26" as="geometry" />
        </mxCell>
        <mxCell id="6BHXMDmVlEBjsqxJzx_9-184" value="Domestic" style="swimlane;fontStyle=1;align=center;verticalAlign=top;childLayout=stackLayout;horizontal=1;startSize=26;horizontalStack=0;resizeParent=1;resizeParentMax=0;resizeLast=0;collapsible=1;marginBottom=0;whiteSpace=wrap;html=1;" vertex="1" parent="1">
          <mxGeometry x="-1380" y="466" width="190" height="140" as="geometry" />
        </mxCell>
        <mxCell id="6BHXMDmVlEBjsqxJzx_9-185" value="+ IBAN: String" style="text;strokeColor=none;fillColor=none;align=left;verticalAlign=top;spacingLeft=4;spacingRight=4;overflow=hidden;rotatable=0;points=[[0,0.5],[1,0.5]];portConstraint=eastwest;whiteSpace=wrap;html=1;" vertex="1" parent="6BHXMDmVlEBjsqxJzx_9-184">
          <mxGeometry y="26" width="190" height="26" as="geometry" />
        </mxCell>
        <mxCell id="6BHXMDmVlEBjsqxJzx_9-186" value="+ destinationBankName: String&amp;nbsp;" style="text;strokeColor=none;fillColor=none;align=left;verticalAlign=top;spacingLeft=4;spacingRight=4;overflow=hidden;rotatable=0;points=[[0,0.5],[1,0.5]];portConstraint=eastwest;whiteSpace=wrap;html=1;" vertex="1" parent="6BHXMDmVlEBjsqxJzx_9-184">
          <mxGeometry y="52" width="190" height="28" as="geometry" />
        </mxCell>
        <mxCell id="6BHXMDmVlEBjsqxJzx_9-187" value="" style="line;strokeWidth=1;fillColor=none;align=left;verticalAlign=middle;spacingTop=-1;spacingLeft=3;spacingRight=3;rotatable=0;labelPosition=right;points=[];portConstraint=eastwest;strokeColor=inherit;" vertex="1" parent="6BHXMDmVlEBjsqxJzx_9-184">
          <mxGeometry y="80" width="190" height="8" as="geometry" />
        </mxCell>
        <mxCell id="6BHXMDmVlEBjsqxJzx_9-188" value="+ Domestic(String, String)" style="text;strokeColor=none;fillColor=none;align=left;verticalAlign=top;spacingLeft=4;spacingRight=4;overflow=hidden;rotatable=0;points=[[0,0.5],[1,0.5]];portConstraint=eastwest;whiteSpace=wrap;html=1;" vertex="1" parent="6BHXMDmVlEBjsqxJzx_9-184">
          <mxGeometry y="88" width="190" height="26" as="geometry" />
        </mxCell>
        <mxCell id="6BHXMDmVlEBjsqxJzx_9-189" value="+ makePayment(double): void" style="text;strokeColor=none;fillColor=none;align=left;verticalAlign=top;spacingLeft=4;spacingRight=4;overflow=hidden;rotatable=0;points=[[0,0.5],[1,0.5]];portConstraint=eastwest;whiteSpace=wrap;html=1;" vertex="1" parent="6BHXMDmVlEBjsqxJzx_9-184">
          <mxGeometry y="114" width="190" height="26" as="geometry" />
        </mxCell>
        <mxCell id="6BHXMDmVlEBjsqxJzx_9-190" value="CreditCardPayment" style="swimlane;fontStyle=1;align=center;verticalAlign=top;childLayout=stackLayout;horizontal=1;startSize=26;horizontalStack=0;resizeParent=1;resizeParentMax=0;resizeLast=0;collapsible=1;marginBottom=0;whiteSpace=wrap;html=1;" vertex="1" parent="1">
          <mxGeometry x="-1080" y="143" width="180" height="164" as="geometry" />
        </mxCell>
        <mxCell id="6BHXMDmVlEBjsqxJzx_9-191" value="+ paymentID: int" style="text;strokeColor=none;fillColor=none;align=left;verticalAlign=top;spacingLeft=4;spacingRight=4;overflow=hidden;rotatable=0;points=[[0,0.5],[1,0.5]];portConstraint=eastwest;whiteSpace=wrap;html=1;" vertex="1" parent="6BHXMDmVlEBjsqxJzx_9-190">
          <mxGeometry y="26" width="180" height="26" as="geometry" />
        </mxCell>
        <mxCell id="6BHXMDmVlEBjsqxJzx_9-192" value="+ receiver: receiver" style="text;strokeColor=none;fillColor=none;align=left;verticalAlign=top;spacingLeft=4;spacingRight=4;overflow=hidden;rotatable=0;points=[[0,0.5],[1,0.5]];portConstraint=eastwest;whiteSpace=wrap;html=1;" vertex="1" parent="6BHXMDmVlEBjsqxJzx_9-190">
          <mxGeometry y="52" width="180" height="26" as="geometry" />
        </mxCell>
        <mxCell id="6BHXMDmVlEBjsqxJzx_9-193" value="" style="line;strokeWidth=1;fillColor=none;align=left;verticalAlign=middle;spacingTop=-1;spacingLeft=3;spacingRight=3;rotatable=0;labelPosition=right;points=[];portConstraint=eastwest;strokeColor=inherit;" vertex="1" parent="6BHXMDmVlEBjsqxJzx_9-190">
          <mxGeometry y="78" width="180" height="8" as="geometry" />
        </mxCell>
        <mxCell id="6BHXMDmVlEBjsqxJzx_9-194" value="+ CreditCardPayment(double)" style="text;strokeColor=none;fillColor=none;align=left;verticalAlign=top;spacingLeft=4;spacingRight=4;overflow=hidden;rotatable=0;points=[[0,0.5],[1,0.5]];portConstraint=eastwest;whiteSpace=wrap;html=1;" vertex="1" parent="6BHXMDmVlEBjsqxJzx_9-190">
          <mxGeometry y="86" width="180" height="26" as="geometry" />
        </mxCell>
        <mxCell id="6BHXMDmVlEBjsqxJzx_9-195" value="+ makePayment(double): void" style="text;strokeColor=none;fillColor=none;align=left;verticalAlign=top;spacingLeft=4;spacingRight=4;overflow=hidden;rotatable=0;points=[[0,0.5],[1,0.5]];portConstraint=eastwest;whiteSpace=wrap;html=1;" vertex="1" parent="6BHXMDmVlEBjsqxJzx_9-190">
          <mxGeometry y="112" width="180" height="26" as="geometry" />
        </mxCell>
        <mxCell id="6BHXMDmVlEBjsqxJzx_9-196" value="+execute(): void" style="text;strokeColor=none;fillColor=none;align=left;verticalAlign=top;spacingLeft=4;spacingRight=4;overflow=hidden;rotatable=0;points=[[0,0.5],[1,0.5]];portConstraint=eastwest;whiteSpace=wrap;html=1;" vertex="1" parent="6BHXMDmVlEBjsqxJzx_9-190">
          <mxGeometry y="138" width="180" height="26" as="geometry" />
        </mxCell>
        <mxCell id="6BHXMDmVlEBjsqxJzx_9-197" value="BillPayment" style="swimlane;fontStyle=1;align=center;verticalAlign=top;childLayout=stackLayout;horizontal=1;startSize=26;horizontalStack=0;resizeParent=1;resizeParentMax=0;resizeLast=0;collapsible=1;marginBottom=0;whiteSpace=wrap;html=1;" vertex="1" parent="1">
          <mxGeometry x="-710" y="110" width="180" height="164" as="geometry" />
        </mxCell>
        <mxCell id="6BHXMDmVlEBjsqxJzx_9-198" value="+ paymentID: int" style="text;strokeColor=none;fillColor=none;align=left;verticalAlign=top;spacingLeft=4;spacingRight=4;overflow=hidden;rotatable=0;points=[[0,0.5],[1,0.5]];portConstraint=eastwest;whiteSpace=wrap;html=1;" vertex="1" parent="6BHXMDmVlEBjsqxJzx_9-197">
          <mxGeometry y="26" width="180" height="26" as="geometry" />
        </mxCell>
        <mxCell id="6BHXMDmVlEBjsqxJzx_9-199" value="+ receiver: receiver" style="text;strokeColor=none;fillColor=none;align=left;verticalAlign=top;spacingLeft=4;spacingRight=4;overflow=hidden;rotatable=0;points=[[0,0.5],[1,0.5]];portConstraint=eastwest;whiteSpace=wrap;html=1;" vertex="1" parent="6BHXMDmVlEBjsqxJzx_9-197">
          <mxGeometry y="52" width="180" height="26" as="geometry" />
        </mxCell>
        <mxCell id="6BHXMDmVlEBjsqxJzx_9-200" value="" style="line;strokeWidth=1;fillColor=none;align=left;verticalAlign=middle;spacingTop=-1;spacingLeft=3;spacingRight=3;rotatable=0;labelPosition=right;points=[];portConstraint=eastwest;strokeColor=inherit;" vertex="1" parent="6BHXMDmVlEBjsqxJzx_9-197">
          <mxGeometry y="78" width="180" height="8" as="geometry" />
        </mxCell>
        <mxCell id="6BHXMDmVlEBjsqxJzx_9-201" value="+ BillPayment(double)" style="text;strokeColor=none;fillColor=none;align=left;verticalAlign=top;spacingLeft=4;spacingRight=4;overflow=hidden;rotatable=0;points=[[0,0.5],[1,0.5]];portConstraint=eastwest;whiteSpace=wrap;html=1;" vertex="1" parent="6BHXMDmVlEBjsqxJzx_9-197">
          <mxGeometry y="86" width="180" height="26" as="geometry" />
        </mxCell>
        <mxCell id="6BHXMDmVlEBjsqxJzx_9-202" value="+ makePayment(double): void" style="text;strokeColor=none;fillColor=none;align=left;verticalAlign=top;spacingLeft=4;spacingRight=4;overflow=hidden;rotatable=0;points=[[0,0.5],[1,0.5]];portConstraint=eastwest;whiteSpace=wrap;html=1;" vertex="1" parent="6BHXMDmVlEBjsqxJzx_9-197">
          <mxGeometry y="112" width="180" height="26" as="geometry" />
        </mxCell>
        <mxCell id="6BHXMDmVlEBjsqxJzx_9-203" value="+execute(): void" style="text;strokeColor=none;fillColor=none;align=left;verticalAlign=top;spacingLeft=4;spacingRight=4;overflow=hidden;rotatable=0;points=[[0,0.5],[1,0.5]];portConstraint=eastwest;whiteSpace=wrap;html=1;" vertex="1" parent="6BHXMDmVlEBjsqxJzx_9-197">
          <mxGeometry y="138" width="180" height="26" as="geometry" />
        </mxCell>
        <mxCell id="6BHXMDmVlEBjsqxJzx_9-204" value="" style="endArrow=block;endSize=10;endFill=0;shadow=0;strokeWidth=1;rounded=0;edgeStyle=orthogonalEdgeStyle;elbow=vertical;curved=1;" edge="1" parent="1" source="6BHXMDmVlEBjsqxJzx_9-197">
          <mxGeometry width="160" relative="1" as="geometry">
            <mxPoint x="-1040" y="94" as="sourcePoint" />
            <mxPoint x="-980" y="30" as="targetPoint" />
            <Array as="points">
              <mxPoint x="-620" y="80" />
              <mxPoint x="-980" y="80" />
            </Array>
          </mxGeometry>
        </mxCell>
        <mxCell id="6BHXMDmVlEBjsqxJzx_9-205" value="" style="endArrow=block;endSize=10;endFill=0;shadow=0;strokeWidth=1;rounded=0;elbow=vertical;exitX=0.642;exitY=0.016;exitDx=0;exitDy=0;exitPerimeter=0;entryX=0.742;entryY=0.998;entryDx=0;entryDy=0;entryPerimeter=0;" edge="1" parent="1" source="6BHXMDmVlEBjsqxJzx_9-216" target="6BHXMDmVlEBjsqxJzx_9-203">
          <mxGeometry width="160" relative="1" as="geometry">
            <mxPoint x="-780" y="289" as="sourcePoint" />
            <mxPoint x="-730" y="260" as="targetPoint" />
          </mxGeometry>
        </mxCell>
        <mxCell id="6BHXMDmVlEBjsqxJzx_9-206" value="" style="endArrow=block;endSize=10;endFill=0;shadow=0;strokeWidth=1;rounded=0;edgeStyle=elbowEdgeStyle;elbow=vertical;exitX=0.594;exitY=0.002;exitDx=0;exitDy=0;exitPerimeter=0;" edge="1" parent="1" source="6BHXMDmVlEBjsqxJzx_9-162">
          <mxGeometry width="160" relative="1" as="geometry">
            <mxPoint x="-1180" y="94" as="sourcePoint" />
            <mxPoint x="-1110" y="30" as="targetPoint" />
            <Array as="points">
              <mxPoint x="-1512" y="72" />
              <mxPoint x="-1299" y="37" />
              <mxPoint x="-1302" y="37" />
            </Array>
          </mxGeometry>
        </mxCell>
        <mxCell id="6BHXMDmVlEBjsqxJzx_9-207" value="" style="endArrow=block;endSize=10;endFill=0;shadow=0;strokeWidth=1;rounded=0;edgeStyle=elbowEdgeStyle;elbow=vertical;exitX=0.5;exitY=0;exitDx=0;exitDy=0;entryX=0.18;entryY=1.062;entryDx=0;entryDy=0;entryPerimeter=0;" edge="1" parent="1" source="6BHXMDmVlEBjsqxJzx_9-173" target="6BHXMDmVlEBjsqxJzx_9-172">
          <mxGeometry width="160" relative="1" as="geometry">
            <mxPoint x="-1420" y="363" as="sourcePoint" />
            <mxPoint x="-1263.7400000000002" y="320.18000000000006" as="targetPoint" />
            <Array as="points">
              <mxPoint x="-1380" y="403" />
              <mxPoint x="-1469" y="347" />
              <mxPoint x="-1472" y="347" />
            </Array>
          </mxGeometry>
        </mxCell>
        <mxCell id="6BHXMDmVlEBjsqxJzx_9-208" value="" style="endArrow=block;endSize=10;endFill=0;shadow=0;strokeWidth=1;rounded=0;edgeStyle=orthogonalEdgeStyle;elbow=vertical;entryX=0.439;entryY=1.034;entryDx=0;entryDy=0;entryPerimeter=0;exitX=0.5;exitY=0;exitDx=0;exitDy=0;curved=1;" edge="1" parent="1" source="6BHXMDmVlEBjsqxJzx_9-212" target="6BHXMDmVlEBjsqxJzx_9-203">
          <mxGeometry width="160" relative="1" as="geometry">
            <mxPoint x="-880" y="329" as="sourcePoint" />
            <mxPoint x="-800" y="250" as="targetPoint" />
          </mxGeometry>
        </mxCell>
        <mxCell id="6BHXMDmVlEBjsqxJzx_9-209" value="" style="endArrow=block;endSize=10;endFill=0;shadow=0;strokeWidth=1;rounded=0;elbow=vertical;exitX=0.06;exitY=0.007;exitDx=0;exitDy=0;exitPerimeter=0;" edge="1" parent="1" source="6BHXMDmVlEBjsqxJzx_9-177">
          <mxGeometry width="160" relative="1" as="geometry">
            <mxPoint x="-1120" y="413" as="sourcePoint" />
            <mxPoint x="-1190" y="330" as="targetPoint" />
          </mxGeometry>
        </mxCell>
        <mxCell id="6BHXMDmVlEBjsqxJzx_9-210" value="" style="endArrow=block;endSize=10;endFill=0;shadow=0;strokeWidth=1;rounded=0;edgeStyle=elbowEdgeStyle;elbow=vertical;exitX=0.213;exitY=-0.016;exitDx=0;exitDy=0;exitPerimeter=0;" edge="1" parent="1" source="6BHXMDmVlEBjsqxJzx_9-190">
          <mxGeometry width="160" relative="1" as="geometry">
            <mxPoint x="-1096.5" y="94" as="sourcePoint" />
            <mxPoint x="-1033" y="30" as="targetPoint" />
            <Array as="points">
              <mxPoint x="-1033" y="110" />
              <mxPoint x="-1428.5" y="72" />
              <mxPoint x="-1215.5" y="37" />
              <mxPoint x="-1218.5" y="37" />
            </Array>
          </mxGeometry>
        </mxCell>
        <mxCell id="6BHXMDmVlEBjsqxJzx_9-211" value="" style="endArrow=block;endSize=10;endFill=0;shadow=0;strokeWidth=1;rounded=0;elbow=vertical;exitX=0.884;exitY=0.009;exitDx=0;exitDy=0;exitPerimeter=0;entryX=0.405;entryY=1.062;entryDx=0;entryDy=0;entryPerimeter=0;" edge="1" parent="1" source="6BHXMDmVlEBjsqxJzx_9-184" target="6BHXMDmVlEBjsqxJzx_9-172">
          <mxGeometry width="160" relative="1" as="geometry">
            <mxPoint x="-1250" y="403" as="sourcePoint" />
            <mxPoint x="-1211" y="322.98800000000006" as="targetPoint" />
          </mxGeometry>
        </mxCell>
        <mxCell id="6BHXMDmVlEBjsqxJzx_9-212" value="InternalBill" style="swimlane;fontStyle=1;align=center;verticalAlign=top;childLayout=stackLayout;horizontal=1;startSize=26;horizontalStack=0;resizeParent=1;resizeParentMax=0;resizeLast=0;collapsible=1;marginBottom=0;whiteSpace=wrap;html=1;" vertex="1" parent="1">
          <mxGeometry x="-940" y="370" width="180" height="86" as="geometry" />
        </mxCell>
        <mxCell id="6BHXMDmVlEBjsqxJzx_9-213" value="" style="line;strokeWidth=1;fillColor=none;align=left;verticalAlign=middle;spacingTop=-1;spacingLeft=3;spacingRight=3;rotatable=0;labelPosition=right;points=[];portConstraint=eastwest;strokeColor=inherit;" vertex="1" parent="6BHXMDmVlEBjsqxJzx_9-212">
          <mxGeometry y="26" width="180" height="8" as="geometry" />
        </mxCell>
        <mxCell id="6BHXMDmVlEBjsqxJzx_9-214" value="+ InternalBill()" style="text;strokeColor=none;fillColor=none;align=left;verticalAlign=top;spacingLeft=4;spacingRight=4;overflow=hidden;rotatable=0;points=[[0,0.5],[1,0.5]];portConstraint=eastwest;whiteSpace=wrap;html=1;" vertex="1" parent="6BHXMDmVlEBjsqxJzx_9-212">
          <mxGeometry y="34" width="180" height="26" as="geometry" />
        </mxCell>
        <mxCell id="6BHXMDmVlEBjsqxJzx_9-215" value="+ makePayment(double): void" style="text;strokeColor=none;fillColor=none;align=left;verticalAlign=top;spacingLeft=4;spacingRight=4;overflow=hidden;rotatable=0;points=[[0,0.5],[1,0.5]];portConstraint=eastwest;whiteSpace=wrap;html=1;" vertex="1" parent="6BHXMDmVlEBjsqxJzx_9-212">
          <mxGeometry y="60" width="180" height="26" as="geometry" />
        </mxCell>
        <mxCell id="6BHXMDmVlEBjsqxJzx_9-216" value="ThirdParty" style="swimlane;fontStyle=1;align=center;verticalAlign=top;childLayout=stackLayout;horizontal=1;startSize=26;horizontalStack=0;resizeParent=1;resizeParentMax=0;resizeLast=0;collapsible=1;marginBottom=0;whiteSpace=wrap;html=1;" vertex="1" parent="1">
          <mxGeometry x="-730" y="399" width="180" height="112" as="geometry" />
        </mxCell>
        <mxCell id="6BHXMDmVlEBjsqxJzx_9-217" value="+ ThirdParty()" style="text;strokeColor=none;fillColor=none;align=left;verticalAlign=top;spacingLeft=4;spacingRight=4;overflow=hidden;rotatable=0;points=[[0,0.5],[1,0.5]];portConstraint=eastwest;whiteSpace=wrap;html=1;" vertex="1" parent="6BHXMDmVlEBjsqxJzx_9-216">
          <mxGeometry y="26" width="180" height="26" as="geometry" />
        </mxCell>
        <mxCell id="6BHXMDmVlEBjsqxJzx_9-218" value="+ name: String" style="text;strokeColor=none;fillColor=none;align=left;verticalAlign=top;spacingLeft=4;spacingRight=4;overflow=hidden;rotatable=0;points=[[0,0.5],[1,0.5]];portConstraint=eastwest;whiteSpace=wrap;html=1;" vertex="1" parent="6BHXMDmVlEBjsqxJzx_9-216">
          <mxGeometry y="52" width="180" height="26" as="geometry" />
        </mxCell>
        <mxCell id="6BHXMDmVlEBjsqxJzx_9-219" value="" style="line;strokeWidth=1;fillColor=none;align=left;verticalAlign=middle;spacingTop=-1;spacingLeft=3;spacingRight=3;rotatable=0;labelPosition=right;points=[];portConstraint=eastwest;strokeColor=inherit;" vertex="1" parent="6BHXMDmVlEBjsqxJzx_9-216">
          <mxGeometry y="78" width="180" height="8" as="geometry" />
        </mxCell>
        <mxCell id="6BHXMDmVlEBjsqxJzx_9-220" value="+ makePayment(double): void" style="text;strokeColor=none;fillColor=none;align=left;verticalAlign=top;spacingLeft=4;spacingRight=4;overflow=hidden;rotatable=0;points=[[0,0.5],[1,0.5]];portConstraint=eastwest;whiteSpace=wrap;html=1;" vertex="1" parent="6BHXMDmVlEBjsqxJzx_9-216">
          <mxGeometry y="86" width="180" height="26" as="geometry" />
        </mxCell>
        <mxCell id="6BHXMDmVlEBjsqxJzx_9-221" value="Own" style="swimlane;fontStyle=1;align=center;verticalAlign=top;childLayout=stackLayout;horizontal=1;startSize=26;horizontalStack=0;resizeParent=1;resizeParentMax=0;resizeLast=0;collapsible=1;marginBottom=0;whiteSpace=wrap;html=1;" vertex="1" parent="1">
          <mxGeometry x="-1800" y="456" width="190" height="86" as="geometry" />
        </mxCell>
        <mxCell id="6BHXMDmVlEBjsqxJzx_9-222" value="" style="line;strokeWidth=1;fillColor=none;align=left;verticalAlign=middle;spacingTop=-1;spacingLeft=3;spacingRight=3;rotatable=0;labelPosition=right;points=[];portConstraint=eastwest;strokeColor=inherit;" vertex="1" parent="6BHXMDmVlEBjsqxJzx_9-221">
          <mxGeometry y="26" width="190" height="8" as="geometry" />
        </mxCell>
        <mxCell id="6BHXMDmVlEBjsqxJzx_9-223" value="+ Own()" style="text;strokeColor=none;fillColor=none;align=left;verticalAlign=top;spacingLeft=4;spacingRight=4;overflow=hidden;rotatable=0;points=[[0,0.5],[1,0.5]];portConstraint=eastwest;whiteSpace=wrap;html=1;" vertex="1" parent="6BHXMDmVlEBjsqxJzx_9-221">
          <mxGeometry y="34" width="190" height="26" as="geometry" />
        </mxCell>
        <mxCell id="6BHXMDmVlEBjsqxJzx_9-224" value="+ makePayment(double): void" style="text;strokeColor=none;fillColor=none;align=left;verticalAlign=top;spacingLeft=4;spacingRight=4;overflow=hidden;rotatable=0;points=[[0,0.5],[1,0.5]];portConstraint=eastwest;whiteSpace=wrap;html=1;" vertex="1" parent="6BHXMDmVlEBjsqxJzx_9-221">
          <mxGeometry y="60" width="190" height="26" as="geometry" />
        </mxCell>
        <mxCell id="6BHXMDmVlEBjsqxJzx_9-225" value="" style="endArrow=block;endSize=10;endFill=0;shadow=0;strokeWidth=1;rounded=0;edgeStyle=elbowEdgeStyle;elbow=vertical;exitX=0.5;exitY=0;exitDx=0;exitDy=0;entryX=0.016;entryY=0.912;entryDx=0;entryDy=0;entryPerimeter=0;" edge="1" parent="1" source="6BHXMDmVlEBjsqxJzx_9-221" target="6BHXMDmVlEBjsqxJzx_9-172">
          <mxGeometry width="160" relative="1" as="geometry">
            <mxPoint x="-1410" y="263" as="sourcePoint" />
            <mxPoint x="-1298.6600000000003" y="322.98800000000006" as="targetPoint" />
            <Array as="points">
              <mxPoint x="-1705" y="382" />
              <mxPoint x="-1492" y="347" />
              <mxPoint x="-1495" y="347" />
            </Array>
          </mxGeometry>
        </mxCell>
        <mxCell id="6BHXMDmVlEBjsqxJzx_9-226" value="" style="endArrow=diamondThin;endFill=0;endSize=24;html=1;rounded=0;entryX=-0.013;entryY=-0.187;entryDx=0;entryDy=0;entryPerimeter=0;dashed=1;dashPattern=8 8;exitX=1.001;exitY=0.077;exitDx=0;exitDy=0;exitPerimeter=0;" edge="1" parent="1" source="6BHXMDmVlEBjsqxJzx_9-146" target="6BHXMDmVlEBjsqxJzx_9-5">
          <mxGeometry width="160" relative="1" as="geometry">
            <mxPoint x="-320" y="510" as="sourcePoint" />
            <mxPoint x="-160" y="502.18" as="targetPoint" />
          </mxGeometry>
        </mxCell>
        <mxCell id="6BHXMDmVlEBjsqxJzx_9-227" value="«interface»&lt;br&gt;&lt;b&gt;PaymentStrategy&lt;br&gt;&lt;/b&gt;+ makePayment(double): void" style="html=1;whiteSpace=wrap;" vertex="1" parent="1">
          <mxGeometry x="-1530" y="770" width="160" height="108" as="geometry" />
        </mxCell>
        <mxCell id="6BHXMDmVlEBjsqxJzx_9-228" value="Visually Impaired Client" style="swimlane;fontStyle=0;align=center;verticalAlign=top;childLayout=stackLayout;horizontal=1;startSize=26;horizontalStack=0;resizeParent=1;resizeLast=0;collapsible=1;marginBottom=0;rounded=0;shadow=0;strokeWidth=1;" vertex="1" parent="1">
          <mxGeometry x="33" y="1054" width="270" height="202" as="geometry">
            <mxRectangle x="130" y="380" width="160" height="26" as="alternateBounds" />
          </mxGeometry>
        </mxCell>
        <mxCell id="6BHXMDmVlEBjsqxJzx_9-229" value="" style="line;strokeWidth=1;fillColor=none;align=left;verticalAlign=middle;spacingTop=-1;spacingLeft=3;spacingRight=3;rotatable=0;labelPosition=right;points=[];portConstraint=eastwest;strokeColor=inherit;" vertex="1" parent="6BHXMDmVlEBjsqxJzx_9-228">
          <mxGeometry y="26" width="270" height="8" as="geometry" />
        </mxCell>
        <mxCell id="6BHXMDmVlEBjsqxJzx_9-230" style="edgeStyle=orthogonalEdgeStyle;rounded=0;orthogonalLoop=1;jettySize=auto;html=1;exitX=1;exitY=0.5;exitDx=0;exitDy=0;" edge="1" parent="6BHXMDmVlEBjsqxJzx_9-228">
          <mxGeometry relative="1" as="geometry">
            <mxPoint x="250" y="47" as="sourcePoint" />
            <mxPoint x="250" y="47" as="targetPoint" />
          </mxGeometry>
        </mxCell>
        <mxCell id="6BHXMDmVlEBjsqxJzx_9-231" value="+ Visually Impaired Client()" style="text;strokeColor=none;fillColor=none;align=left;verticalAlign=top;spacingLeft=4;spacingRight=4;overflow=hidden;rotatable=0;points=[[0,0.5],[1,0.5]];portConstraint=eastwest;whiteSpace=wrap;html=1;" vertex="1" parent="6BHXMDmVlEBjsqxJzx_9-228">
          <mxGeometry y="34" width="270" height="26" as="geometry" />
        </mxCell>
        <mxCell id="6BHXMDmVlEBjsqxJzx_9-232" value="+ registerUser( String,&amp;nbsp; String,&amp;nbsp; int,&amp;nbsp; date): void&amp;nbsp;" style="text;strokeColor=none;fillColor=none;align=left;verticalAlign=top;spacingLeft=4;spacingRight=4;overflow=hidden;rotatable=0;points=[[0,0.5],[1,0.5]];portConstraint=eastwest;whiteSpace=wrap;html=1;" vertex="1" parent="6BHXMDmVlEBjsqxJzx_9-228">
          <mxGeometry y="60" width="270" height="32" as="geometry" />
        </mxCell>
        <mxCell id="6BHXMDmVlEBjsqxJzx_9-233" value="+ login(biometrics): void&amp;nbsp;" style="text;strokeColor=none;fillColor=none;align=left;verticalAlign=top;spacingLeft=4;spacingRight=4;overflow=hidden;rotatable=0;points=[[0,0.5],[1,0.5]];portConstraint=eastwest;whiteSpace=wrap;html=1;" vertex="1" parent="6BHXMDmVlEBjsqxJzx_9-228">
          <mxGeometry y="92" width="270" height="32" as="geometry" />
        </mxCell>
        <mxCell id="6BHXMDmVlEBjsqxJzx_9-234" value="+ displayData(): void" style="text;strokeColor=none;fillColor=none;align=left;verticalAlign=top;spacingLeft=4;spacingRight=4;overflow=hidden;rotatable=0;points=[[0,0.5],[1,0.5]];portConstraint=eastwest;whiteSpace=wrap;html=1;" vertex="1" parent="6BHXMDmVlEBjsqxJzx_9-228">
          <mxGeometry y="124" width="270" height="26" as="geometry" />
        </mxCell>
        <mxCell id="6BHXMDmVlEBjsqxJzx_9-235" value="+ changeFont(): void" style="text;strokeColor=none;fillColor=none;align=left;verticalAlign=top;spacingLeft=4;spacingRight=4;overflow=hidden;rotatable=0;points=[[0,0.5],[1,0.5]];portConstraint=eastwest;whiteSpace=wrap;html=1;" vertex="1" parent="6BHXMDmVlEBjsqxJzx_9-228">
          <mxGeometry y="150" width="270" height="26" as="geometry" />
        </mxCell>
        <mxCell id="6BHXMDmVlEBjsqxJzx_9-236" value="+ changeColorSettings(): void" style="text;strokeColor=none;fillColor=none;align=left;verticalAlign=top;spacingLeft=4;spacingRight=4;overflow=hidden;rotatable=0;points=[[0,0.5],[1,0.5]];portConstraint=eastwest;whiteSpace=wrap;html=1;" vertex="1" parent="6BHXMDmVlEBjsqxJzx_9-228">
          <mxGeometry y="176" width="270" height="26" as="geometry" />
        </mxCell>
        <mxCell id="6BHXMDmVlEBjsqxJzx_9-237" value="" style="endArrow=block;dashed=1;endFill=0;endSize=12;html=1;rounded=0;entryX=0;entryY=0;entryDx=0;entryDy=0;exitX=0.354;exitY=1.036;exitDx=0;exitDy=0;exitPerimeter=0;" edge="1" parent="1" source="6BHXMDmVlEBjsqxJzx_9-224" target="6BHXMDmVlEBjsqxJzx_9-227">
          <mxGeometry width="160" relative="1" as="geometry">
            <mxPoint x="-1570" y="240" as="sourcePoint" />
            <mxPoint x="-1730" y="240" as="targetPoint" />
          </mxGeometry>
        </mxCell>
        <mxCell id="6BHXMDmVlEBjsqxJzx_9-238" value="" style="endArrow=block;dashed=1;endFill=0;endSize=12;html=1;rounded=0;entryX=0.25;entryY=0;entryDx=0;entryDy=0;exitX=0.33;exitY=1.036;exitDx=0;exitDy=0;exitPerimeter=0;" edge="1" parent="1" source="6BHXMDmVlEBjsqxJzx_9-176" target="6BHXMDmVlEBjsqxJzx_9-227">
          <mxGeometry width="160" relative="1" as="geometry">
            <mxPoint x="-1580" y="420" as="sourcePoint" />
            <mxPoint x="-1478" y="201" as="targetPoint" />
          </mxGeometry>
        </mxCell>
        <mxCell id="6BHXMDmVlEBjsqxJzx_9-239" value="" style="endArrow=block;dashed=1;endFill=0;endSize=12;html=1;rounded=0;entryX=1;entryY=0;entryDx=0;entryDy=0;" edge="1" parent="1" target="6BHXMDmVlEBjsqxJzx_9-227">
          <mxGeometry width="160" relative="1" as="geometry">
            <mxPoint x="-1160" y="600" as="sourcePoint" />
            <mxPoint x="-1380" y="105" as="targetPoint" />
          </mxGeometry>
        </mxCell>
        <mxCell id="6BHXMDmVlEBjsqxJzx_9-240" value="" style="endArrow=block;dashed=1;endFill=0;endSize=12;html=1;rounded=0;exitX=0.349;exitY=1.023;exitDx=0;exitDy=0;exitPerimeter=0;entryX=0.75;entryY=0;entryDx=0;entryDy=0;" edge="1" parent="1" source="6BHXMDmVlEBjsqxJzx_9-189" target="6BHXMDmVlEBjsqxJzx_9-227">
          <mxGeometry width="160" relative="1" as="geometry">
            <mxPoint x="-1338" y="109.5" as="sourcePoint" />
            <mxPoint x="-1410" y="878" as="targetPoint" />
          </mxGeometry>
        </mxCell>
        <mxCell id="6BHXMDmVlEBjsqxJzx_9-241" value="Assuming that biometrics and voice are &quot;datatypes&quot;" style="ellipse;shape=cloud;whiteSpace=wrap;html=1;" vertex="1" parent="1">
          <mxGeometry x="33" y="1256" width="260" height="84" as="geometry" />
        </mxCell>
        <mxCell id="6BHXMDmVlEBjsqxJzx_9-242" value="" style="endArrow=none;html=1;rounded=0;exitX=0.002;exitY=1.197;exitDx=0;exitDy=0;exitPerimeter=0;entryX=1;entryY=0.5;entryDx=0;entryDy=0;" edge="1" parent="1" source="6BHXMDmVlEBjsqxJzx_9-121" target="6BHXMDmVlEBjsqxJzx_9-3">
          <mxGeometry relative="1" as="geometry">
            <mxPoint x="-40" y="407.59" as="sourcePoint" />
            <mxPoint x="190" y="411.99999999999994" as="targetPoint" />
          </mxGeometry>
        </mxCell>
        <mxCell id="6BHXMDmVlEBjsqxJzx_9-243" value="0..*" style="resizable=0;html=1;whiteSpace=wrap;align=left;verticalAlign=bottom;" connectable="0" vertex="1" parent="6BHXMDmVlEBjsqxJzx_9-242">
          <mxGeometry x="-1" relative="1" as="geometry" />
        </mxCell>
        <mxCell id="6BHXMDmVlEBjsqxJzx_9-244" value="1" style="resizable=0;html=1;whiteSpace=wrap;align=right;verticalAlign=bottom;" connectable="0" vertex="1" parent="6BHXMDmVlEBjsqxJzx_9-242">
          <mxGeometry x="1" relative="1" as="geometry" />
        </mxCell>
        <mxCell id="6BHXMDmVlEBjsqxJzx_9-245" value="Invoker" style="swimlane;fontStyle=1;align=center;verticalAlign=top;childLayout=stackLayout;horizontal=1;startSize=26;horizontalStack=0;resizeParent=1;resizeParentMax=0;resizeLast=0;collapsible=1;marginBottom=0;whiteSpace=wrap;html=1;" vertex="1" parent="1">
          <mxGeometry x="-920" y="-320" width="160" height="112" as="geometry" />
        </mxCell>
        <mxCell id="6BHXMDmVlEBjsqxJzx_9-246" value="+ command: command" style="text;strokeColor=none;fillColor=none;align=left;verticalAlign=top;spacingLeft=4;spacingRight=4;overflow=hidden;rotatable=0;points=[[0,0.5],[1,0.5]];portConstraint=eastwest;whiteSpace=wrap;html=1;" vertex="1" parent="6BHXMDmVlEBjsqxJzx_9-245">
          <mxGeometry y="26" width="160" height="26" as="geometry" />
        </mxCell>
        <mxCell id="6BHXMDmVlEBjsqxJzx_9-247" value="" style="line;strokeWidth=1;fillColor=none;align=left;verticalAlign=middle;spacingTop=-1;spacingLeft=3;spacingRight=3;rotatable=0;labelPosition=right;points=[];portConstraint=eastwest;strokeColor=inherit;" vertex="1" parent="6BHXMDmVlEBjsqxJzx_9-245">
          <mxGeometry y="52" width="160" height="8" as="geometry" />
        </mxCell>
        <mxCell id="6BHXMDmVlEBjsqxJzx_9-248" value="+ execute():void&lt;br&gt;" style="text;strokeColor=none;fillColor=none;align=left;verticalAlign=top;spacingLeft=4;spacingRight=4;overflow=hidden;rotatable=0;points=[[0,0.5],[1,0.5]];portConstraint=eastwest;whiteSpace=wrap;html=1;" vertex="1" parent="6BHXMDmVlEBjsqxJzx_9-245">
          <mxGeometry y="60" width="160" height="26" as="geometry" />
        </mxCell>
        <mxCell id="6BHXMDmVlEBjsqxJzx_9-249" value="+ viewTransaction(): void" style="text;strokeColor=none;fillColor=none;align=left;verticalAlign=top;spacingLeft=4;spacingRight=4;overflow=hidden;rotatable=0;points=[[0,0.5],[1,0.5]];portConstraint=eastwest;whiteSpace=wrap;html=1;" vertex="1" parent="6BHXMDmVlEBjsqxJzx_9-245">
          <mxGeometry y="86" width="160" height="26" as="geometry" />
        </mxCell>
        <mxCell id="6BHXMDmVlEBjsqxJzx_9-250" value="&lt;p style=&quot;margin:0px;margin-top:4px;text-align:center;&quot;&gt;&lt;i&gt;&amp;lt;&amp;lt;Interface&amp;gt;&amp;gt;&lt;/i&gt;&lt;br&gt;Command&lt;/p&gt;&lt;p style=&quot;margin:0px;margin-left:4px;&quot;&gt;&lt;br&gt;&lt;/p&gt;&lt;hr size=&quot;1&quot;&gt;&lt;p style=&quot;margin:0px;margin-left:4px;&quot;&gt;+ execute()&lt;br&gt;&lt;/p&gt;" style="verticalAlign=top;align=left;overflow=fill;fontSize=12;fontFamily=Helvetica;html=1;whiteSpace=wrap;" vertex="1" parent="1">
          <mxGeometry x="-1210" y="-430" width="190" height="78" as="geometry" />
        </mxCell>
        <mxCell id="6BHXMDmVlEBjsqxJzx_9-251" value="" style="group" connectable="0" vertex="1" parent="1">
          <mxGeometry x="-630" y="-290" width="250" height="157" as="geometry" />
        </mxCell>
        <mxCell id="6BHXMDmVlEBjsqxJzx_9-252" value="&lt;p style=&quot;margin:0px;margin-top:4px;text-align:center;&quot;&gt;&lt;i&gt;&amp;lt;&amp;lt;Interface&amp;gt;&amp;gt;&lt;/i&gt;&lt;br&gt;Receiver&lt;/p&gt;&lt;hr size=&quot;1&quot;&gt;&lt;p style=&quot;margin:0px;margin-left:4px;&quot;&gt;&lt;br&gt;&lt;/p&gt;&lt;hr size=&quot;1&quot;&gt;&lt;p style=&quot;margin:0px;margin-left:4px;&quot;&gt;+ performTransfer(): void&lt;br&gt;&lt;/p&gt;" style="verticalAlign=top;align=left;overflow=fill;fontSize=12;fontFamily=Helvetica;html=1;whiteSpace=wrap;" vertex="1" parent="6BHXMDmVlEBjsqxJzx_9-251">
          <mxGeometry width="230" height="157" as="geometry" />
        </mxCell>
        <mxCell id="6BHXMDmVlEBjsqxJzx_9-253" value="+ performBillPayment(): void" style="text;strokeColor=none;fillColor=none;align=left;verticalAlign=top;spacingLeft=4;spacingRight=4;overflow=hidden;rotatable=0;points=[[0,0.5],[1,0.5]];portConstraint=eastwest;whiteSpace=wrap;html=1;" vertex="1" parent="6BHXMDmVlEBjsqxJzx_9-251">
          <mxGeometry y="90" width="250" height="38" as="geometry" />
        </mxCell>
        <mxCell id="6BHXMDmVlEBjsqxJzx_9-254" value="+ performCreditCardPayment():void" style="text;strokeColor=none;fillColor=none;align=left;verticalAlign=top;spacingLeft=4;spacingRight=4;overflow=hidden;rotatable=0;points=[[0,0.5],[1,0.5]];portConstraint=eastwest;whiteSpace=wrap;html=1;" vertex="1" parent="6BHXMDmVlEBjsqxJzx_9-251">
          <mxGeometry y="110" width="250" height="38" as="geometry" />
        </mxCell>
        <mxCell id="6BHXMDmVlEBjsqxJzx_9-255" value="" style="endArrow=block;dashed=1;endFill=0;endSize=12;html=1;rounded=0;exitX=0.5;exitY=0;exitDx=0;exitDy=0;" edge="1" parent="1" source="6BHXMDmVlEBjsqxJzx_9-78">
          <mxGeometry width="160" relative="1" as="geometry">
            <mxPoint x="-483" y="143" as="sourcePoint" />
            <mxPoint x="-400" y="-130" as="targetPoint" />
            <Array as="points">
              <mxPoint x="-240" y="140" />
            </Array>
          </mxGeometry>
        </mxCell>
        <mxCell id="6BHXMDmVlEBjsqxJzx_9-256" value="" style="endArrow=block;dashed=1;endFill=0;endSize=12;html=1;rounded=0;entryX=0;entryY=1;entryDx=0;entryDy=0;exitX=0.125;exitY=0.005;exitDx=0;exitDy=0;exitPerimeter=0;" edge="1" parent="1" source="6BHXMDmVlEBjsqxJzx_9-162" target="6BHXMDmVlEBjsqxJzx_9-250">
          <mxGeometry width="160" relative="1" as="geometry">
            <mxPoint x="-1280" y="110" as="sourcePoint" />
            <mxPoint x="-1233" y="-157" as="targetPoint" />
          </mxGeometry>
        </mxCell>
        <mxCell id="6BHXMDmVlEBjsqxJzx_9-257" value="" style="endArrow=block;dashed=1;endFill=0;endSize=12;html=1;rounded=0;exitX=0.25;exitY=0;exitDx=0;exitDy=0;" edge="1" parent="1" source="6BHXMDmVlEBjsqxJzx_9-197">
          <mxGeometry width="160" relative="1" as="geometry">
            <mxPoint x="-847" y="110" as="sourcePoint" />
            <mxPoint x="-1040" y="-350" as="targetPoint" />
          </mxGeometry>
        </mxCell>
        <mxCell id="6BHXMDmVlEBjsqxJzx_9-258" value="" style="endArrow=block;dashed=1;endFill=0;endSize=12;html=1;rounded=0;entryX=0.5;entryY=1;entryDx=0;entryDy=0;" edge="1" parent="1" target="6BHXMDmVlEBjsqxJzx_9-250">
          <mxGeometry width="160" relative="1" as="geometry">
            <mxPoint x="-980" y="140" as="sourcePoint" />
            <mxPoint x="-993" y="-280" as="targetPoint" />
          </mxGeometry>
        </mxCell>
        <mxCell id="6BHXMDmVlEBjsqxJzx_9-259" value="" style="group" connectable="0" vertex="1" parent="1">
          <mxGeometry x="-1850" y="-505" width="566" height="437" as="geometry" />
        </mxCell>
        <mxCell id="6BHXMDmVlEBjsqxJzx_9-260" value="Notify" style="swimlane;fontStyle=1;align=center;verticalAlign=top;childLayout=stackLayout;horizontal=1;startSize=26;horizontalStack=0;resizeParent=1;resizeParentMax=0;resizeLast=0;collapsible=1;marginBottom=0;whiteSpace=wrap;html=1;" vertex="1" parent="6BHXMDmVlEBjsqxJzx_9-259">
          <mxGeometry x="216" width="160" height="60" as="geometry" />
        </mxCell>
        <mxCell id="6BHXMDmVlEBjsqxJzx_9-261" value="" style="line;strokeWidth=1;fillColor=none;align=left;verticalAlign=middle;spacingTop=-1;spacingLeft=3;spacingRight=3;rotatable=0;labelPosition=right;points=[];portConstraint=eastwest;strokeColor=inherit;" vertex="1" parent="6BHXMDmVlEBjsqxJzx_9-260">
          <mxGeometry y="26" width="160" height="8" as="geometry" />
        </mxCell>
        <mxCell id="6BHXMDmVlEBjsqxJzx_9-262" value="+ sendNotification() : void" style="text;strokeColor=none;fillColor=none;align=left;verticalAlign=top;spacingLeft=4;spacingRight=4;overflow=hidden;rotatable=0;points=[[0,0.5],[1,0.5]];portConstraint=eastwest;whiteSpace=wrap;html=1;" vertex="1" parent="6BHXMDmVlEBjsqxJzx_9-260">
          <mxGeometry y="34" width="160" height="26" as="geometry" />
        </mxCell>
        <mxCell id="6BHXMDmVlEBjsqxJzx_9-263" value="" style="endArrow=diamondThin;endFill=0;endSize=24;html=1;rounded=0;dashed=1;dashPattern=8 8;entryX=1.036;entryY=0.01;entryDx=0;entryDy=0;entryPerimeter=0;" edge="1" parent="6BHXMDmVlEBjsqxJzx_9-260">
          <mxGeometry width="160" relative="1" as="geometry">
            <mxPoint x="160" y="38" as="sourcePoint" />
            <mxPoint x="170" y="218" as="targetPoint" />
            <Array as="points">
              <mxPoint x="240" y="38" />
              <mxPoint x="240" y="218" />
            </Array>
          </mxGeometry>
        </mxCell>
        <mxCell id="6BHXMDmVlEBjsqxJzx_9-264" value="Send email" style="swimlane;fontStyle=1;align=center;verticalAlign=top;childLayout=stackLayout;horizontal=1;startSize=26;horizontalStack=0;resizeParent=1;resizeParentMax=0;resizeLast=0;collapsible=1;marginBottom=0;whiteSpace=wrap;html=1;" vertex="1" parent="6BHXMDmVlEBjsqxJzx_9-259">
          <mxGeometry x="406" y="351" width="160" height="60" as="geometry" />
        </mxCell>
        <mxCell id="6BHXMDmVlEBjsqxJzx_9-265" value="" style="line;strokeWidth=1;fillColor=none;align=left;verticalAlign=middle;spacingTop=-1;spacingLeft=3;spacingRight=3;rotatable=0;labelPosition=right;points=[];portConstraint=eastwest;strokeColor=inherit;" vertex="1" parent="6BHXMDmVlEBjsqxJzx_9-264">
          <mxGeometry y="26" width="160" height="8" as="geometry" />
        </mxCell>
        <mxCell id="6BHXMDmVlEBjsqxJzx_9-266" value="+ sendNotification() : void" style="text;strokeColor=none;fillColor=none;align=left;verticalAlign=top;spacingLeft=4;spacingRight=4;overflow=hidden;rotatable=0;points=[[0,0.5],[1,0.5]];portConstraint=eastwest;whiteSpace=wrap;html=1;" vertex="1" parent="6BHXMDmVlEBjsqxJzx_9-264">
          <mxGeometry y="34" width="160" height="26" as="geometry" />
        </mxCell>
        <mxCell id="6BHXMDmVlEBjsqxJzx_9-267" value="Send SMS" style="swimlane;fontStyle=1;align=center;verticalAlign=top;childLayout=stackLayout;horizontal=1;startSize=26;horizontalStack=0;resizeParent=1;resizeParentMax=0;resizeLast=0;collapsible=1;marginBottom=0;whiteSpace=wrap;html=1;" vertex="1" parent="6BHXMDmVlEBjsqxJzx_9-259">
          <mxGeometry y="348" width="160" height="60" as="geometry" />
        </mxCell>
        <mxCell id="6BHXMDmVlEBjsqxJzx_9-268" value="" style="line;strokeWidth=1;fillColor=none;align=left;verticalAlign=middle;spacingTop=-1;spacingLeft=3;spacingRight=3;rotatable=0;labelPosition=right;points=[];portConstraint=eastwest;strokeColor=inherit;" vertex="1" parent="6BHXMDmVlEBjsqxJzx_9-267">
          <mxGeometry y="26" width="160" height="8" as="geometry" />
        </mxCell>
        <mxCell id="6BHXMDmVlEBjsqxJzx_9-269" value="+ sendNotification() : void" style="text;strokeColor=none;fillColor=none;align=left;verticalAlign=top;spacingLeft=4;spacingRight=4;overflow=hidden;rotatable=0;points=[[0,0.5],[1,0.5]];portConstraint=eastwest;whiteSpace=wrap;html=1;" vertex="1" parent="6BHXMDmVlEBjsqxJzx_9-267">
          <mxGeometry y="34" width="160" height="26" as="geometry" />
        </mxCell>
        <mxCell id="6BHXMDmVlEBjsqxJzx_9-270" value="BaseDecorator" style="swimlane;fontStyle=1;align=center;verticalAlign=top;childLayout=stackLayout;horizontal=1;startSize=26;horizontalStack=0;resizeParent=1;resizeParentMax=0;resizeLast=0;collapsible=1;marginBottom=0;whiteSpace=wrap;html=1;" vertex="1" parent="6BHXMDmVlEBjsqxJzx_9-259">
          <mxGeometry x="226" y="158" width="160" height="112" as="geometry" />
        </mxCell>
        <mxCell id="6BHXMDmVlEBjsqxJzx_9-271" value="- wrappee: Notify" style="text;strokeColor=none;fillColor=none;align=left;verticalAlign=top;spacingLeft=4;spacingRight=4;overflow=hidden;rotatable=0;points=[[0,0.5],[1,0.5]];portConstraint=eastwest;whiteSpace=wrap;html=1;" vertex="1" parent="6BHXMDmVlEBjsqxJzx_9-270">
          <mxGeometry y="26" width="160" height="26" as="geometry" />
        </mxCell>
        <mxCell id="6BHXMDmVlEBjsqxJzx_9-272" value="" style="line;strokeWidth=1;fillColor=none;align=left;verticalAlign=middle;spacingTop=-1;spacingLeft=3;spacingRight=3;rotatable=0;labelPosition=right;points=[];portConstraint=eastwest;strokeColor=inherit;" vertex="1" parent="6BHXMDmVlEBjsqxJzx_9-270">
          <mxGeometry y="52" width="160" height="8" as="geometry" />
        </mxCell>
        <mxCell id="6BHXMDmVlEBjsqxJzx_9-273" value="- baseDecorator(Notify)" style="text;strokeColor=none;fillColor=none;align=left;verticalAlign=top;spacingLeft=4;spacingRight=4;overflow=hidden;rotatable=0;points=[[0,0.5],[1,0.5]];portConstraint=eastwest;whiteSpace=wrap;html=1;" vertex="1" parent="6BHXMDmVlEBjsqxJzx_9-270">
          <mxGeometry y="60" width="160" height="26" as="geometry" />
        </mxCell>
        <mxCell id="6BHXMDmVlEBjsqxJzx_9-274" value="+ send(message)" style="text;strokeColor=none;fillColor=none;align=left;verticalAlign=top;spacingLeft=4;spacingRight=4;overflow=hidden;rotatable=0;points=[[0,0.5],[1,0.5]];portConstraint=eastwest;whiteSpace=wrap;html=1;" vertex="1" parent="6BHXMDmVlEBjsqxJzx_9-270">
          <mxGeometry y="86" width="160" height="26" as="geometry" />
        </mxCell>
        <mxCell id="6BHXMDmVlEBjsqxJzx_9-275" value="Send in-app notification" style="swimlane;fontStyle=1;align=center;verticalAlign=top;childLayout=stackLayout;horizontal=1;startSize=26;horizontalStack=0;resizeParent=1;resizeParentMax=0;resizeLast=0;collapsible=1;marginBottom=0;whiteSpace=wrap;html=1;" vertex="1" parent="6BHXMDmVlEBjsqxJzx_9-259">
          <mxGeometry x="196" y="351" width="160" height="60" as="geometry" />
        </mxCell>
        <mxCell id="6BHXMDmVlEBjsqxJzx_9-276" value="" style="line;strokeWidth=1;fillColor=none;align=left;verticalAlign=middle;spacingTop=-1;spacingLeft=3;spacingRight=3;rotatable=0;labelPosition=right;points=[];portConstraint=eastwest;strokeColor=inherit;" vertex="1" parent="6BHXMDmVlEBjsqxJzx_9-275">
          <mxGeometry y="26" width="160" height="8" as="geometry" />
        </mxCell>
        <mxCell id="6BHXMDmVlEBjsqxJzx_9-277" value="+ sendNotification() : void" style="text;strokeColor=none;fillColor=none;align=left;verticalAlign=top;spacingLeft=4;spacingRight=4;overflow=hidden;rotatable=0;points=[[0,0.5],[1,0.5]];portConstraint=eastwest;whiteSpace=wrap;html=1;" vertex="1" parent="6BHXMDmVlEBjsqxJzx_9-275">
          <mxGeometry y="34" width="160" height="26" as="geometry" />
        </mxCell>
        <mxCell id="6BHXMDmVlEBjsqxJzx_9-278" value="" style="endArrow=block;endSize=10;endFill=0;shadow=0;strokeWidth=1;rounded=0;edgeStyle=elbowEdgeStyle;elbow=vertical;" edge="1" parent="6BHXMDmVlEBjsqxJzx_9-259">
          <mxGeometry width="160" relative="1" as="geometry">
            <mxPoint x="305.63" y="330" as="sourcePoint" />
            <mxPoint x="305.63" y="270" as="targetPoint" />
            <Array as="points">
              <mxPoint x="306" y="348" />
              <mxPoint x="294.63" y="15" />
              <mxPoint x="284.63" y="15" />
              <mxPoint x="264.63" y="15" />
              <mxPoint x="423.6300000000001" y="15" />
            </Array>
          </mxGeometry>
        </mxCell>
        <mxCell id="6BHXMDmVlEBjsqxJzx_9-279" value="" style="endArrow=block;endSize=10;endFill=0;shadow=0;strokeWidth=1;rounded=0;edgeStyle=orthogonalEdgeStyle;elbow=vertical;curved=1;exitX=1;exitY=0;exitDx=0;exitDy=0;" edge="1" parent="6BHXMDmVlEBjsqxJzx_9-259" source="6BHXMDmVlEBjsqxJzx_9-267">
          <mxGeometry width="160" relative="1" as="geometry">
            <mxPoint x="236" y="330" as="sourcePoint" />
            <mxPoint x="236" y="270" as="targetPoint" />
          </mxGeometry>
        </mxCell>
        <mxCell id="6BHXMDmVlEBjsqxJzx_9-280" value="" style="endArrow=block;endSize=10;endFill=0;shadow=0;strokeWidth=1;rounded=0;edgeStyle=orthogonalEdgeStyle;elbow=vertical;curved=1;exitX=0.116;exitY=-0.001;exitDx=0;exitDy=0;exitPerimeter=0;" edge="1" parent="6BHXMDmVlEBjsqxJzx_9-259" source="6BHXMDmVlEBjsqxJzx_9-264">
          <mxGeometry width="160" relative="1" as="geometry">
            <mxPoint x="396" y="328" as="sourcePoint" />
            <mxPoint x="366" y="270" as="targetPoint" />
          </mxGeometry>
        </mxCell>
        <mxCell id="6BHXMDmVlEBjsqxJzx_9-281" value="" style="endArrow=block;endSize=10;endFill=0;shadow=0;strokeWidth=1;rounded=0;elbow=vertical;entryX=0.453;entryY=1.025;entryDx=0;entryDy=0;entryPerimeter=0;exitX=0.388;exitY=0.015;exitDx=0;exitDy=0;exitPerimeter=0;" edge="1" parent="6BHXMDmVlEBjsqxJzx_9-259" source="6BHXMDmVlEBjsqxJzx_9-270" target="6BHXMDmVlEBjsqxJzx_9-262">
          <mxGeometry width="160" relative="1" as="geometry">
            <mxPoint x="295.09000000000003" y="140" as="sourcePoint" />
            <mxPoint x="295.09000000000003" y="80" as="targetPoint" />
          </mxGeometry>
        </mxCell>
        <mxCell id="6BHXMDmVlEBjsqxJzx_9-282" value="" style="endArrow=none;html=1;endSize=12;startArrow=diamondThin;startSize=14;startFill=0;align=left;verticalAlign=bottom;rounded=0;entryX=0.25;entryY=1;entryDx=0;entryDy=0;exitX=0.75;exitY=0;exitDx=0;exitDy=0;endFill=0;" edge="1" parent="1" source="6BHXMDmVlEBjsqxJzx_9-197" target="6BHXMDmVlEBjsqxJzx_9-252">
          <mxGeometry x="-0.8577" relative="1" as="geometry">
            <mxPoint x="-572" y="100" as="sourcePoint" />
            <mxPoint x="-570" y="-120" as="targetPoint" />
            <mxPoint as="offset" />
          </mxGeometry>
        </mxCell>
        <mxCell id="6BHXMDmVlEBjsqxJzx_9-283" value="1" style="endArrow=none;html=1;endSize=12;startArrow=diamondThin;startSize=14;startFill=0;edgeStyle=orthogonalEdgeStyle;align=left;verticalAlign=bottom;rounded=0;exitX=1;exitY=0.5;exitDx=0;exitDy=0;curved=1;endFill=0;" edge="1" parent="1">
          <mxGeometry x="0.9654" y="-1590" relative="1" as="geometry">
            <mxPoint x="-1130" y="119.92" as="sourcePoint" />
            <mxPoint x="-620" y="-130" as="targetPoint" />
            <mxPoint as="offset" />
          </mxGeometry>
        </mxCell>
        <mxCell id="6BHXMDmVlEBjsqxJzx_9-284" value="" style="endArrow=none;html=1;endSize=12;startArrow=diamondThin;startSize=14;startFill=0;edgeStyle=orthogonalEdgeStyle;align=left;verticalAlign=bottom;rounded=0;exitX=1;exitY=0.5;exitDx=0;exitDy=0;entryX=0;entryY=0.5;entryDx=0;entryDy=0;endFill=0;" edge="1" parent="1" source="6BHXMDmVlEBjsqxJzx_9-191" target="6BHXMDmVlEBjsqxJzx_9-254">
          <mxGeometry x="-0.8577" relative="1" as="geometry">
            <mxPoint x="-870" y="190" as="sourcePoint" />
            <mxPoint x="-815" y="-100" as="targetPoint" />
            <mxPoint as="offset" />
            <Array as="points">
              <mxPoint x="-890" y="182" />
              <mxPoint x="-890" y="-140" />
              <mxPoint x="-630" y="-140" />
            </Array>
          </mxGeometry>
        </mxCell>
        <mxCell id="6BHXMDmVlEBjsqxJzx_9-285" value="" style="endArrow=block;endSize=10;endFill=0;shadow=0;strokeWidth=1;rounded=0;elbow=vertical;" edge="1" parent="1" source="6BHXMDmVlEBjsqxJzx_9-228">
          <mxGeometry width="160" relative="1" as="geometry">
            <mxPoint x="180" y="1077" as="sourcePoint" />
            <mxPoint x="180" y="810" as="targetPoint" />
          </mxGeometry>
        </mxCell>
        <mxCell id="6BHXMDmVlEBjsqxJzx_9-286" value="&lt;p style=&quot;margin:0px;margin-top:4px;text-align:center;&quot;&gt;&lt;i&gt;&amp;lt;&amp;lt;Interface&amp;gt;&amp;gt;&lt;/i&gt;&lt;br&gt;Natural Language Generator (Third-Party)&lt;b style=&quot;border-color: var(--border-color);&quot;&gt;&lt;br style=&quot;border-color: var(--border-color);&quot;&gt;&lt;/b&gt;&lt;/p&gt;&lt;p style=&quot;margin:0px;margin-left:4px;&quot;&gt;&lt;br&gt;&lt;/p&gt;&lt;hr size=&quot;1&quot;&gt;&lt;p style=&quot;margin:0px;margin-left:4px;&quot;&gt;+ readOutLoud(voice): void&lt;br&gt;&lt;/p&gt;" style="verticalAlign=top;align=left;overflow=fill;fontSize=12;fontFamily=Helvetica;html=1;whiteSpace=wrap;" vertex="1" parent="1">
          <mxGeometry x="430" y="1140" width="380" height="78" as="geometry" />
        </mxCell>
        <mxCell id="6BHXMDmVlEBjsqxJzx_9-287" value="" style="endArrow=block;dashed=1;endFill=0;endSize=12;html=1;rounded=0;entryX=1;entryY=0.25;entryDx=0;entryDy=0;exitX=0;exitY=0.5;exitDx=0;exitDy=0;" edge="1" parent="1" source="6BHXMDmVlEBjsqxJzx_9-233" target="6BHXMDmVlEBjsqxJzx_9-289">
          <mxGeometry width="160" relative="1" as="geometry">
            <mxPoint x="-40" y="1174" as="sourcePoint" />
            <mxPoint x="20" y="1180" as="targetPoint" />
          </mxGeometry>
        </mxCell>
        <mxCell id="6BHXMDmVlEBjsqxJzx_9-288" value="" style="endArrow=block;dashed=1;endFill=0;endSize=12;html=1;rounded=0;entryX=0;entryY=0.25;entryDx=0;entryDy=0;exitX=1;exitY=0.5;exitDx=0;exitDy=0;" edge="1" parent="1" source="6BHXMDmVlEBjsqxJzx_9-233" target="6BHXMDmVlEBjsqxJzx_9-286">
          <mxGeometry width="160" relative="1" as="geometry">
            <mxPoint x="350" y="1142.1496598639455" as="sourcePoint" />
            <mxPoint x="30" y="1190" as="targetPoint" />
          </mxGeometry>
        </mxCell>
        <mxCell id="6BHXMDmVlEBjsqxJzx_9-289" value="&lt;p style=&quot;margin:0px;margin-top:4px;text-align:center;&quot;&gt;&lt;i&gt;&amp;lt;&amp;lt;Interface&amp;gt;&amp;gt;&lt;/i&gt;&lt;/p&gt;&lt;p style=&quot;border-color: var(--border-color); margin: 4px 0px 0px; text-align: center;&quot;&gt;Natural Language Processor(Third-Party)&lt;b style=&quot;border-color: var(--border-color);&quot;&gt;&lt;br style=&quot;border-color: var(--border-color);&quot;&gt;&lt;/b&gt;&lt;/p&gt;&lt;p style=&quot;border-color: var(--border-color); margin: 0px 0px 0px 4px;&quot;&gt;&lt;br style=&quot;border-color: var(--border-color);&quot;&gt;&lt;/p&gt;&lt;hr size=&quot;1&quot;&gt;&lt;p style=&quot;margin:0px;margin-left:4px;&quot;&gt;+ readOutLoud(voice): void&lt;br&gt;&lt;/p&gt;" style="verticalAlign=top;align=left;overflow=fill;fontSize=12;fontFamily=Helvetica;html=1;whiteSpace=wrap;" vertex="1" parent="1">
          <mxGeometry x="-450" y="1140" width="410" height="78" as="geometry" />
        </mxCell>
        <mxCell id="6BHXMDmVlEBjsqxJzx_9-290" value="&lt;p style=&quot;margin:0px;margin-top:4px;text-align:center;&quot;&gt;&lt;i&gt;&amp;lt;&amp;lt;Interface&amp;gt;&amp;gt;&lt;/i&gt;&lt;br&gt;AccountObserver&lt;br&gt;&lt;/p&gt;&lt;p style=&quot;margin:0px;margin-left:4px;&quot;&gt;&lt;br&gt;&lt;/p&gt;&lt;hr size=&quot;1&quot;&gt;&lt;p style=&quot;margin:0px;margin-left:4px;&quot;&gt;+ update()&lt;br&gt;&lt;/p&gt;" style="verticalAlign=top;align=left;overflow=fill;fontSize=12;fontFamily=Helvetica;html=1;whiteSpace=wrap;" vertex="1" parent="1">
          <mxGeometry x="180" y="143" width="190" height="78" as="geometry" />
        </mxCell>
        <mxCell id="6BHXMDmVlEBjsqxJzx_9-291" value="" style="endArrow=block;dashed=1;endFill=0;endSize=12;html=1;rounded=0;entryX=0.25;entryY=1;entryDx=0;entryDy=0;exitX=0.75;exitY=0;exitDx=0;exitDy=0;" edge="1" parent="1" source="6BHXMDmVlEBjsqxJzx_9-2" target="6BHXMDmVlEBjsqxJzx_9-290">
          <mxGeometry width="160" relative="1" as="geometry">
            <mxPoint x="183" y="332" as="sourcePoint" />
            <mxPoint x="220" y="202" as="targetPoint" />
          </mxGeometry>
        </mxCell>
        <mxCell id="6BHXMDmVlEBjsqxJzx_9-292" value="" style="endArrow=block;dashed=1;endFill=0;endSize=12;html=1;rounded=0;entryX=1;entryY=1;entryDx=0;entryDy=0;exitX=0.16;exitY=-0.015;exitDx=0;exitDy=0;exitPerimeter=0;" edge="1" parent="1" source="6BHXMDmVlEBjsqxJzx_9-40" target="6BHXMDmVlEBjsqxJzx_9-290">
          <mxGeometry width="160" relative="1" as="geometry">
            <mxPoint x="220" y="360" as="sourcePoint" />
            <mxPoint x="268" y="207" as="targetPoint" />
            <Array as="points">
              <mxPoint x="510" y="360" />
            </Array>
          </mxGeometry>
        </mxCell>
      </root>
    </mxGraphModel>
  </diagram>
</mxfile>
